<?xml version="1.0" encoding="utf-8"?>
<!-- Generator: Adobe Illustrator 24.0.0, SVG Export Plug-In . SVG Version: 6.00 Build 0)  -->
<svg version="1.1" id="Layer_1" xmlns="http://www.w3.org/2000/svg" xmlns:xlink="http://www.w3.org/1999/xlink" x="0px" y="0px"
	 viewBox="0 0 2037.3 1694.3" style="enable-background:new 0 0 2037.3 1694.3;" xml:space="preserve">
<style type="text/css">
	.st0{fill:#FFFFFF;}
</style>
<path class="st0" d="M1763.8,808.5c-0.7-2.1-165.9-15.9-362.8-38.8c-168.7-19.7-355.5-35.8-482.9-35.8v-87.7
	c130.2,0,320.9,16.4,492.8,36.4c146.5,17.1,281.7,41.2,361.5,63.4V87.7H264.7v643.5c41.8-19.7,98.2-38.8,161.4-52.4
	c87.9-19,191.9-31.1,289-24.7l-5.8,87.7c-88.9-5.9-184.1,5.2-264.7,22.6c-97.3,21-168.2,43.9-171.9,53.2l-8.1-3.2v792.1h1507.6
	V805.4L1763.8,808.5z M220.9,0h1639.3v1694.3H177V0H220.9z"/>
<path class="st0" d="M449,171.5c79.8,0,100.5,60.7,100.5,186.7c0,98.9-27.1,148.4-86.2,148.4h-44.7c-3.2,0-15.9,1.6-39.9,1.6
	c-22.3,0-22.3-9.5-22.3-43.1v-3.2c0-9.5,1.6-54.2,1.6-137.2c0-81.4-3.2-126.1-3.2-132.4c0-15.9,8-20.8,25.5-20.8L449,171.5
	L449,171.5L449,171.5z M429.9,414c0,17.5,3.2,22.3,16,22.3c22.3,0,23.9-17.5,23.9-67v-28.7c0-67-1.6-94.1-27.1-94.1
	c-9.5,0-14.4,6.4-14.4,17.5c0,14.4,1.6,25.5,1.6,33.5V406V414z M602.2,211.4c15.9-30.3,47.9-46.3,94.1-46.3
	c70.2,0,98.9,41.5,98.9,130.8v14.4c0,67,0,114.9-12.8,145.2c-14.4,35.1-49.4,55.9-98.9,55.9c-78.2,0-98.9-52.7-98.9-170.7
	C584.6,287.9,584.6,244.9,602.2,211.4L602.2,211.4z M686.7,431.5c25.5,0,25.5-22.3,25.5-73.4V280c0-22.3-8-36.7-22.3-36.7
	c-17.5,0-22.3,17.5-22.3,51v92.5C667.6,417.2,670.8,431.5,686.7,431.5L686.7,431.5z M839.9,205c0-22.3,1.6-33.5,22.3-33.5h43.1
	c11.2,0,14.3,1.6,17.5,11.2c3.2,11.2,14.4,60.6,43.1,146.8h8l1.6-130.9c0-19.2,1.6-27.1,17.5-27.1h28.7c17.5,0,22.3,3.2,22.3,19.2
	v142c0,12.8-1.6,28.7-1.6,46.2v87.7c0,25.5,0,39.9-20.7,39.9H985c-19.2,0-20.8-3.2-28.7-28.8L919.6,347H910v130.8
	c0,20.8-1.6,28.8-22.3,28.8h-24c-23.9,0-23.9-8-23.9-32L839.9,205L839.9,205z M1095.2,391.7c1.6-9.5,1.6-22.3,3.2-35.1
	c17.5-89.4,25.5-137.2,27.1-146.8c4.8-28.7,6.4-38.3,20.8-38.3h57.4c8,0,14.4,0,17.5,4.8c4.8,8,11.2,47.9,27.1,121.2
	c6.4,25.5,11.2,65.5,20.8,119.7c4.8,30.3,14.4,52.7,14.4,71.8c0,9.5-8,17.5-22.3,17.5h-39.9c-6.4,0-12.7-6.4-14.4-11.2
	c-3.2-11.2-1.6-22.3-4.8-31.9c-1.6-11.2-8-16-19.2-16c-17.5,0-27.1,6.4-27.1,14.4v15.9c0,20.8-3.2,28.8-20.8,28.8h-43
	c-12.8,0-17.5-4.8-17.5-14.4c0-8,3.2-19.2,6.4-31.9L1095.2,391.7L1095.2,391.7z M1163.8,348.6c-1.6,9.5-1.6,16-1.6,16
	c0,4.7,6.4,9.5,17.5,9.5c12.8,0,17.5-4.8,17.5-12.8c0-3.2-1.6-6.4-1.6-11.2l-14.4-97.4l-4.8,1.6L1163.8,348.6L1163.8,348.6z
	 M1427,455.5v30.3c0,14.4-3.2,20.8-16,20.8c-1.6,0-6.4-1.6-11.2-1.6c-8,0-17.5,1.6-28.7,1.6c-16,0-22.3-4.8-22.3-17.5
	c0-8,1.6-17.5,1.6-25.5V343.8c0-7.9-1.6-15.9-1.6-23.9c0-6.4,1.6-27.1,1.6-62.2c0-4.8,0-6.4-3.2-8c-12.7-3.2-25.5,0-36.7-4.8
	c-8-3.2-8-17.5-8-47.9c0-17.5,6.4-24,22.3-24c39.9,0,62.3-1.6,67-1.6c14.4,0,25.5,1.6,35.1,1.6c9.5,0,17.5-1.6,25.5-1.6
	c17.5,0,20.7,3.2,20.7,24v4.7c0,32,0,47.9-15.9,47.9h-15.9c-12.8,0-16,3.2-16,11.2v8L1427,455.5z M1527.5,193.8
	c0-22.3,9.6-22.3,35.1-22.3h89.3c19.2,0,24,4.8,24,24c0,16,1.6,25.5,1.6,28.7c0,17.5-6.4,22.3-23.9,22.3h-38.3
	c-9.5,0-12.7,4.7-12.7,17.5v6.4c0,17.5,0,24,15.9,24c7.9,0,17.5-1.6,31.9-1.6c22.3,0,24,8,24,30.3v14.4c0,20.7-6.4,30.3-19.2,30.3
	c-8,0-20.8-1.6-38.3-1.6c-12.7,0-14.3,4.8-14.3,16v27.1c0,14.3,1.6,17.5,15.9,17.5h41.5c19.2,0,20.8,8,20.8,35.1
	c0,33.4,0,44.7-25.5,44.7c-19.2,0-44.7-3.2-76.6-3.2c-9.5,0-20.7,3.2-33.5,3.2c-12.7,0-20.7-8-20.7-20.8c0-14.3,3.2-31.9,3.2-54.2
	V205L1527.5,193.8L1527.5,193.8z M759.5,693.4c6.3-9.1,12.6-18.2,30.8-5.7s11.9,21.7,5.6,30.8c-1.8,2.7-2.8,5.8-2.9,9
	c-0.2,2.6,0.2,5.2,1.2,7.6c0.7,1.7,1.9,3.2,3.2,4.2c2,1.2,4.4,1.9,6.7,1.9c7.8,0.4,13.5-1.9,17.2-5.6v-0.1c5-5,7.5-12.5,7.5-20
	c0-9.1-0.9-21.6-5.2-32h0.1c-3-8.4-10.1-14.7-18.8-16.7l-0.7-0.2c-1.5-0.3-3-0.5-4.5-0.6c-11.7-0.7-27.3,3.4-41.2,11.6
	c-13.2,7.8-24.3,19.2-27.8,33.3c-0.6,2.4-0.9,4.9-1.1,7.4c-0.9,31.1,21.6,79.9,71.8,81.9h7.2v-0.1c23.2-1.1,41.3-10.9,54.4-24.2
	c17.5-17.8,26.8-41.6,28.2-60.6c0.6-26.1-6.7-61.2-25.4-86.1c-12.8-18.2-33.8-29-56.2-28.8c-67.4,0-102.3,34.9-102.4,35
	c-7.8,7.9-15.7,15.7-31.3,0c-15.7-15.7-7.8-23.5,0-31.3c0.1-0.1,48-48,133.7-48c41.4,0,71.3,19.4,91.7,46.7
	c25.4,34,35.2,80.8,34.1,114.8v1.1c-3.3,33.2-17.8,64.3-41,88.3c-22.1,22.8-52.1,36.3-83.8,37.6h-0.1c-3.6,0.1-7.1,0.1-10.7,0
	c-80.5-3.1-116.4-79.9-114.5-128.2v-0.5c0.3-5,1.2-10.2,2.4-15.4v-0.1c6.7-27,26-47.4,48.2-60.6c21.6-12.8,46.7-19,66.3-17.8
	c3.9,0.2,7.9,0.9,11.9,1.7c26.8,5.9,41.9,23,50.2,42.8h0.1c7.2,17.2,8.7,35.8,8.7,49.1c0,18.4-6.8,37.7-20.5,51.4l-0.1-0.1
	c-13.3,13.3-31.8,20.1-50.5,18.7c-10.7-0.4-21-3.8-29.8-9.9c-8.3-5.8-14.8-13.8-18.8-23.1C745.1,733.2,747.4,710.8,759.5,693.4
	L759.5,693.4z M348.5,913.4h135.6V1384h183.5v119.6H348.5V913.4z M728.2,913.4h135.5v590.3H728.2V913.4z M972.3,913.4h319.1V1033
	h-181.9v118.1H1285v119.6h-175.5v233H972.3V913.4z M1374.3,913.4h331.9V1033h-196.3v110.1h191.5v119.6h-191.5V1384h196.3v119.6
	h-331.9V913.4z"/>
<g>
	<path class="st0" d="M2012.5,116.1c-11.5,11.6-25.5,17.3-41.8,17.3c-16.3,0-30.2-5.8-41.7-17.3c-11.4-11.5-17.1-25.4-17.1-41.8
		c0-16.2,5.8-30,17.3-41.5c11.5-11.4,25.3-17.2,41.5-17.2c16.3,0,30.3,5.7,41.8,17.2c11.5,11.4,17.3,25.3,17.3,41.5
		C2029.7,90.6,2024,104.5,2012.5,116.1z M1934.7,38.5c-9.9,9.9-14.9,21.9-14.9,35.9c0,14.1,4.9,26.1,14.8,36.1
		c9.9,10,21.9,14.9,36.1,14.9c14.2,0,26.2-5,36.1-14.9c9.9-10,14.9-22,14.9-36.1c0-14-5-26-14.9-35.9c-10-10-22-14.9-36.1-14.9
		C1956.7,23.5,1944.7,28.5,1934.7,38.5z M1969.7,41.8c8,0,13.9,0.8,17.7,2.3c6.7,2.8,10.1,8.2,10.1,16.3c0,5.8-2.1,10-6.4,12.7
		c-2.2,1.4-5.4,2.5-9.4,3.1c5,0.8,8.7,2.9,11.1,6.3c2.3,3.4,3.5,6.7,3.5,10v4.7c0,1.5,0.1,3.1,0.2,4.8c0.1,1.7,0.3,2.8,0.5,3.4
		l0.4,0.8h-10.6c0-0.2-0.1-0.4-0.2-0.6c0-0.2-0.1-0.5-0.2-0.7l-0.2-2.1v-5.1c0-7.4-2.1-12.4-6.2-14.8c-2.5-1.4-6.8-2.1-12.9-2.1
		h-9.2v25.4H1947V41.8H1969.7z M1982,52.2c-2.9-1.6-7.6-2.4-14-2.4h-9.9v23.1h10.5c4.9,0,8.5-0.5,11-1.4c4.5-1.8,6.8-5.1,6.8-10
		C1986.4,56.9,1984.9,53.8,1982,52.2z"/>
</g>
</svg>
