<svg data-name="Layer 1" xmlns="http://www.w3.org/2000/svg" viewBox="0 0 368.34 75.09"><title>igloo-logo</title><path d="M22.94,8.34H4.17A4.17,4.17,0,0,0,0,12.51V66.74a8.35,8.35,0,0,0,8.34,8.35H26.1a1,1,0,0,0,1-1V12.51A4.17,4.17,0,0,0,22.94,8.34Z" style="fill:#231f20;fill-rule:evenodd"></path><path d="M215.46,8.34c-27.3,0-46.1,14.94-46.1,33.38s18.8,33.37,46.1,33.37,46.09-14.94,46.09-33.37S242.75,8.34,215.46,8.34Zm0,56.32c-11.61,0-18.61-11.14-18.61-22.94s7-22.95,18.61-22.95,18.61,11.14,18.61,23S227.07,64.66,215.46,64.66Z" style="fill:#231f20;fill-rule:evenodd"></path><path d="M313.9,8.34c-27.29,0-46.09,14.94-46.09,33.38s18.8,33.37,46.09,33.37S360,60.15,360,41.72,341.2,8.34,313.9,8.34Zm0,56.32c-11.61,0-18.61-11.14-18.61-22.94s7-22.95,18.61-22.95,18.62,11.14,18.62,23S325.51,64.66,313.9,64.66Z" style="fill:#231f20;fill-rule:evenodd"></path><path d="M121.39,39.63H84.45a1,1,0,0,0-1,1v5.25a4.17,4.17,0,0,0,4.17,4.17h7.88a1,1,0,0,1,1,1.34c-2.72,7.56-8.66,13.26-17,13.26-11.61,0-18.61-11.14-18.61-22.94s7-22.95,18.61-22.95c7.84,0,13.58,5.09,16.48,12a4.12,4.12,0,0,0,3.79,2.57H122.8a1,1,0,0,0,.93-1.36c-5.34-13.7-22-23.67-44.26-23.67-27.3,0-46.1,14.94-46.1,33.38s18.8,33.37,46.1,33.37c1.75,0,3.48-.07,5.16-.19a40.62,40.62,0,0,0,14.85-4.14,8.34,8.34,0,0,0,7.31,4.33h17.76a1,1,0,0,0,1-1V43.8A4.17,4.17,0,0,0,121.39,39.63Z" style="fill:#231f20;fill-rule:evenodd"></path><path d="M175.28,68.82a4.17,4.17,0,0,0-3.93-4.16h-5.92A4.42,4.42,0,0,1,161,60.23V12.51a4.17,4.17,0,0,0-4.17-4.17H138.08a4.17,4.17,0,0,0-4.17,4.17V66.74a8.34,8.34,0,0,0,8.34,8.35h32a1,1,0,0,0,1-1h0V68.83h0Z" style="fill:#231f20;fill-rule:evenodd"></path><path d="M360,0a8.35,8.35,0,1,0,8.34,8.34A8.34,8.34,0,0,0,360,0Zm0,14.63a6.29,6.29,0,1,1,6.29-6.29A6.29,6.29,0,0,1,360,14.63Z" style="fill:#231f20"></path><path d="M363.16,11.39a3.63,3.63,0,0,1-.05-.73v-.53a2.76,2.76,0,0,0-.24-1.3,1.38,1.38,0,0,0-.65-.58A1.67,1.67,0,0,0,363,7.5a2.48,2.48,0,0,0,.3-1.16,2.37,2.37,0,0,0-.16-.87,2.74,2.74,0,0,0-.41-.7,2.13,2.13,0,0,0-.78-.58A3.56,3.56,0,0,0,360.7,4h-3.91v8.16h1.79V9h1.55a1.3,1.3,0,0,1,.9.23,1.45,1.45,0,0,1,.25,1V11a3.26,3.26,0,0,0,.07.7c0,.11.06.26.11.44v.05h2v-.32l0,0A.57.57,0,0,1,363.16,11.39Zm-2.09-4a1.87,1.87,0,0,1-.77.12h-1.72v-2h1.77a1.53,1.53,0,0,1,.73.13.92.92,0,0,1,.42.91A.82.82,0,0,1,361.07,7.4Z" style="fill:#231f20"></path></svg>