<svg id="Layer_1" data-name="Layer 1" xmlns="http://www.w3.org/2000/svg" viewBox="0 0 556 556"><title>Artboard 6</title><g id="zuopP4"><path d="M389.43,285.82c-4-.25-7.9.75-11.86,1a29.6,29.6,0,0,0-8.53,1.42c-1.29.48-2.5-.28-3.85.15-2.19.71-4.6.74-6.79,1.44s-4.14.33-6.17.82a11,11,0,0,0-2.62.73c-2.15,1.11-4.57,2.2-6.85,1.89-2.6-.36-5,.43-7.46.38-.24,0-.65-.18-.67.12-.17,2.17-2.07,1.46-3.08,1.6a37.18,37.18,0,0,0-8.37,2.15c-1.73.68-3.39,1.86-5.43,1.51-.32-.06-.44.13-.6.35s-.33.47-.54.52c-2.17.44-4.2,1.5-6.42,1.65a4.08,4.08,0,0,0-2.05.4,14.06,14.06,0,0,1-3.88,1.65c-1.62.42-3.27.94-4.93,1.28-1.31.26-2.68.29-3.76,1.26a.88.88,0,0,1-.55.21c-2.41,0-4.41,1.57-6.77,1.67-1.19.06-2,1-3,1.24-.45.12-.89.34-1.33.11-1.32-.68-1.73-.57-3,.35-.73.52-1.41,1.13-2.61.52-.93-.48-2,.52-2.94.93a6.54,6.54,0,0,0-1.89,1.29,2.45,2.45,0,0,1-3.05.57.85.85,0,0,0-.86,0c-1.7.78-3.47,1.37-5.17,2.17a18.9,18.9,0,0,1-6.61,1.43,30.24,30.24,0,0,1-4.26.2,8.2,8.2,0,0,0-3.25.73,43.6,43.6,0,0,1-5.85,1.6,9.43,9.43,0,0,0-2.37.57c-1.75.89-3.69.36-5.52.84-5,1.32-9.92,2.84-15.05,3.35-4.44.45-8.38,2.76-12.82,3.15a2.85,2.85,0,0,1-1.86-.25c-1.06-.6-1.28-.44-1.55.79-.09.39-.41.4-.73.41s-.91-.25-1.29.36c.78.62,1.68.24,2.45.21,3.82-.16,7.56.56,11.33.82.66,0,1.33,0,2,0a95.1,95.1,0,0,1,10,1.26,17.57,17.57,0,0,0,4.4.18,7.5,7.5,0,0,1,2.82.37c-.34.73-1.61.92-1.22,2.08-1-.34-2.24-.08-2.61-1.51-.54.85-3.28,1.54-4,1.1-.38-.24-.08-.55-.13-.82a.54.54,0,0,0-.52-.46c-.29,0-.52.09-.51.41,0,1-.71.66-1.19.69s-.9,0-.93-.68-.61-.86-1-.36c-.59.71-1.22.5-1.93.4a23.07,23.07,0,0,0-6.64-.1,8,8,0,0,1-3.33-.22c-3.35-1-6.75-.48-10.13-.54a9.66,9.66,0,0,1-3.73-.7c-1.13-.49-2.44.2-3.54-.54,1.62-.57,3.2-1.13,5-.42a1.12,1.12,0,0,0,1.59-.75c.12-.85-.76-.61-1.23-.67a55,55,0,0,1-6.24-1.22,7,7,0,0,1,3.63-1.05c2.89-.26,5.66-1.12,8.55-1.48a45.78,45.78,0,0,0,10.28-2.26,19.59,19.59,0,0,1,4.5-.81c2.76-.34,5.27-1.72,8-2.15s5.33-1.18,8-1.63c2.17-.36,4.45-.5,6.29-2a.88.88,0,0,1,.58-.13c2.27.27,4.19-1,6.28-1.48.94-.23,1.87-.51,2.82-.68.41-.07.8-.14,1,.4.36,1,.66.28.88-.08a3.76,3.76,0,0,1,4.58-1,1.55,1.55,0,0,0,1.74,0c1-.63,2.21-.76,3.16-1.49,2.14-1.63,4.93-1.42,7.3-2.5,1.08-.5,2.49.13,3.78-.08,3.79-.63,7.33-2.1,11-3.14,4.22-1.19,8.48-2.24,12.58-3.76a36.47,36.47,0,0,1,5.7-1.59c3.38-.67,6.47-2.09,9.74-3a24.34,24.34,0,0,1,4.54-1.14c1-.09,1.83-1,2.79-1.41a42.12,42.12,0,0,1,9.44-2.91,13.51,13.51,0,0,0,4.79-2.12,4.71,4.71,0,0,1,3.83-.67c2.23.59,4.4,0,6.48-.42,2.95-.54,5.86-.28,8.79-.42a27,27,0,0,0,6.58-1.25,3.79,3.79,0,0,1,3.07.18c.73.43.93-.31,1.42-.39,4.93-.74,9.76-2,14.69-2.79,2.58-.41,5.2.1,7.73-.65a.73.73,0,0,1,.79.35,3.51,3.51,0,0,0-.44.42c-.42.53-1.66,0-1.56.86s1.21.71,1.9,1C389.16,285.67,389.29,285.75,389.43,285.82Z"/><path d="M527.23,247a9.5,9.5,0,0,1,1.7.32c.44.16.71.2,1-.21a2.74,2.74,0,0,1,2.87-.94A8.9,8.9,0,0,0,535,246c2.49-.14,3.76.74,4.5,3.11,0,.18,0,.54.07.55,1.94.36,1.79,1.93,2,3.33.1.8.69,1,1.36.79a10.21,10.21,0,0,0,2.79-1.13c2.64-1.89,5.49-3.51,7.78-5.86a4,4,0,0,1,1-.64c.41-.21.84-.47,1.28-.09s.11.83,0,1.25c-.78,2.19-2.43,3.53-4.13,5.07-3.16,2.85-6.81,4.13-10.77,5a1.85,1.85,0,0,0-1.44,1.61c-.38,2.35-2.25,3.72-3.55,5.42-.59.78-1,1.64-1.55,2.38a17.52,17.52,0,0,1-4.66,3.9c-3.65,2.3-7.13.9-10.6-.5a.41.41,0,0,1-.13-.08c-1.68-2.08-3.66-4.18-3.15-7.05a25,25,0,0,1,2.11-6.36,21.32,21.32,0,0,1,3.95-5.16,34.25,34.25,0,0,1,4-4.07C526.22,247.15,526.65,246.77,527.23,247Zm-8,17.46c.14,3,2.26,5.29,5.4,4.78a11.57,11.57,0,0,0,5.57-3c1.67-1.43,2.66-3.55,4.6-4.64a5.86,5.86,0,0,0,2.59-3.25c.35-.85.27-1.31-.66-1.61-2.82-.88-5.21-2.3-6.48-5.16-.36-.81-1-1.05-1.86-.41-1.43,1.06-2.69,2.32-4,3.48-2.62,2.28-3.47,5.76-5,8.78A3.28,3.28,0,0,0,519.21,264.41ZM535,250.47c0,1,1,2.72,1.65,2.74s.61-.25.62-.67c0-.87-1.11-2.85-1.7-2.87S535,250.14,535,250.47Z"/><path d="M395.57,229.09a17.63,17.63,0,0,1-2.81,7.25,17.39,17.39,0,0,0-1.59,3.87c-.14.39-.22,1,.45,1.09,1.15.2,2.11,1,3.33,1,.92,1.53,1.14,2.87-.94,3.62-.12,0-.19.23-.29.35a4.7,4.7,0,0,1-3.38-.58c-.88-.47-1.41-.42-1.92.58-1.2,2.38-2.77,4.56-3.54,7.16a3.59,3.59,0,0,1-.9,1.39c-1.7,1.7-2.21,4.1-3.56,6a2.07,2.07,0,0,0-.21,1.48,42.56,42.56,0,0,1,.44,7,4.08,4.08,0,0,0,.51,1.26,2.73,2.73,0,0,0-1.85,1.22c-1.59,0-.62,1-.62,1.56l.31,1.52c-.91.19-1.43-.42-1.84-1-.88-1.33-1.87-2.63-1.93-4.33a1,1,0,0,0-.47-.74c-.36-.63-1.44-.35-1.53-1.47s.74-1.34,1.24-1.9-.18-1.06-.37-1.57c2.14-2,2.56-4.92,3.5-7.44.75-2,1.25-4.23,1.91-6.35a24.14,24.14,0,0,1,2.35-5.26,1.94,1.94,0,0,0,.12-1.45c.69-1.05,2-1.85,1.31-3.42.82-.2,1-.9,1.33-1.56,1.65-3.54,2.81-7.32,4.85-10.69a2.65,2.65,0,0,0,1.77-2.49c.11-.2.21-.4.31-.6.83-.34,1.78-.81,1.16.83-.24.64.18,1.06.38,1.57-2.14,1.55-2.56,4.19-3.69,6.32a36.59,36.59,0,0,0-2.09,5.36c-.19.54-.81,1.16.07,1.54s1.09-.43,1.29-1c.79-2.09,2.44-3.7,3.19-5.8a4.56,4.56,0,0,0,2.3-3.31C394.33,229.06,394.7,228.82,395.57,229.09Z"/><path d="M406.29,273.56c2.86-.27,4.94-1.94,6.88-3.85,1.73-1.71,3.23-3.77,5-5.27,2.32-2,3-4.55,4.2-6.94a25.17,25.17,0,0,1,3.28-4.76c1-.36,2.29.17,2.8-1.46.32-1,1.63-1.37,2.62-1.69.68-.23.8.79,1.3,1.12.76.51-.39,1.18.23,1.77-.84-.08-.95-1-1.7-1a2,2,0,0,1-.39,2.31,1.69,1.69,0,0,0-.61,2,10.51,10.51,0,0,0-4.14,10.12,7.27,7.27,0,0,0,2.19,4.05c.91,1.07,3.65,1.4,5.16.65a38.67,38.67,0,0,0,8.79-5.43c1-.88,2.51-1.18,3.05-2.62a3.87,3.87,0,0,0,2.54-1.83c1-1.7,2.52-3,3.28-4.9.35-.06.41-.4.59-.64a5.22,5.22,0,0,0,2.59-1.69c.32-.35.23-1.35,1.23-.89.76.35,1.25.76,1.09,1.66a2.79,2.79,0,0,1-1.87.47,1.09,1.09,0,0,0-1.19.5,17.63,17.63,0,0,1-3.5,4c-.67.58-.05,1.55-.51,1.8-1,.58-1,1.63-1.5,2.45.1.3.19.6.29.91-.53.1-.94.72-1.63.18a.87.87,0,0,0-1.26.48,4.86,4.86,0,0,1-1.62,2.27c-.74.76-1,1.49-.08,2.28a2.92,2.92,0,0,0-1.54.28,3.39,3.39,0,0,0-1.26.82c-3.13,2.32-6.62,3.94-10.52,3.59-3.1-.27-6.1-1.2-7.84-4.42-.76-1.39-1.58-2.56-1.17-4.2a.46.46,0,0,0-.24-.54c-3.74,5.57-7.83,10.55-15.14,11.22A8.44,8.44,0,0,1,406.29,273.56Z"/><path d="M49.05,246.24c-.52-1.15-.08-2.3,0-3.46,0-.48.28-1.17-.31-1.36s-.89.47-1.05.91a6,6,0,0,1-2.35,2.84c-1.41,1-1.61,3-2.62,4.4-1.82,2.56-3.35,5.32-5,8a33.62,33.62,0,0,0-2.92,5.66c-.68,1.8-2.08,3.14-2.9,4.84-.1.22-.39.35-.49.57-1.81,4-5.27,6.81-7.84,10.26A6,6,0,0,1,22.08,280c.2-1.41-.54-2.34-2.19-2.74a25.74,25.74,0,0,0,7.69-9c1.2-2.39,2.75-4.62,4.07-7,2.32-4.11,5.16-7.89,7.34-12.1,2.62-5,4.82-10.32,8.62-14.65,2.2-2.51,4.34-5.14,7.62-6.38a8.25,8.25,0,0,1,.89-.2c-.26,1.51-3,1.4-2.34,3.53,0,0-.26.16-.37.13-.59-.17-.85.27-1.12.61-1.07,1.38-2.11,2.78-3.23,4.25.58.14,1.42-.78,1.52.5,0,.44.39.26.8.12,1-.38,1.2-1.59,2.12-2s1.07-1.29,1.58-1.93c.79-1-.19-3.67,2.55-2.91.06,0,.26-.2.26-.29-.06-.79.4-.72.87-.52,1,.42,1.56,0,2-.87a5.06,5.06,0,0,1-2.2,3.73c-.92.46-2,.56-2.73,1.47a18.93,18.93,0,0,0-3.08,3.73,2.74,2.74,0,0,0-.21,3.28c.16.23.25.43.07.69-1,1.48-.33,2.74.53,4a.89.89,0,0,0,0,.88c-.54.9-.07,2.35-1.51,2.78-.49-.17,0-1.14-.76-1C49.47,248.15,49.3,247.16,49.05,246.24Z"/><path d="M355.08,322c2.52-.4,4.86-1.54,7.41-1.77,4-.36,7.49-2.7,11.4-3.19,2.79-.35,5.28-1.84,8.16-1.74a3.52,3.52,0,0,0,2.73-1.06,5.77,5.77,0,0,1,4.12-1.32,10.86,10.86,0,0,0,5.39-1.44,2.27,2.27,0,0,1,.87-.31,24.27,24.27,0,0,0,8.07-2.66,2.27,2.27,0,0,0,1.89-.1c2.65-1,5.17-2.28,7.92-3,.74,1,2,1,3,1.42.42.18.92-.35,1.21-.78.13-.22,0-.37-.26-.43s-.6,0-.51-.39a.68.68,0,0,1,.72-.47A3.92,3.92,0,0,1,419,305c1.23.8,2,0,2.51-.77.36-.54.48-.69,1.11-.46,1,.35,1.58-.38,2.1-1,.17-.21-.26-.89.46-.82a.78.78,0,0,1,.74,1.08c-.24.58-.8.76-1.28,1-2.3,1.24-4.68,2.35-7,3.55-2.65,1.39-5.62,2-8.13,3.66-1,.66-2.35.19-3.32,1.49-.64.86-2.43.69-3.64,1.25a31.35,31.35,0,0,0-3.81,1.55c-1.4.9-3.07.39-4.58.93a57.58,57.58,0,0,1-7.65,1.85c-3.52.75-7,1.94-10.57,2.21-1.06.08-2,1-3.09.55-.55-.6-1.08.49-1.79,0a3.32,3.32,0,0,0-3-.16c-1.85.54-3.46,1.75-5.58,1.6a9.27,9.27,0,0,0-5.4,1.24,1.47,1.47,0,0,0-.8,1l-1.22,0c-.42-.38-.58-1.53-1.45-.33-.42.58-1.18.27-2,.14C352.57,323.18,354.05,322.89,355.08,322Z"/><path d="M116.53,332.73H115.3a3.19,3.19,0,0,1-1.42-1.1c-.18-.31-.58-.66-.87-.45-1.12.85-2.5.48-3.71.89a7.29,7.29,0,0,1-3.68.28c-1.06-.19-1.2.13-.75,1-2.26-1-4.71-.65-7.06-.94a93.81,93.81,0,0,1-12-1.85c-2.82-.71-5.74-.71-8.6-1.14a19.08,19.08,0,0,1-2.91-.85,71.58,71.58,0,0,0-10.84-2.4c-2.51-.37-4.66-1.78-7.13-2.22a21.64,21.64,0,0,1-2.34-.7c1-1,1.85-.76,2.58-1.24,1.17-.77,2.13,0,3.15-.19.71-.14.14-.48.11-.74.84.16,1.69.3,2.53.49,3.9.92,7.88,1.53,11.72,2.74a25.79,25.79,0,0,0,5.42,1.47,43.15,43.15,0,0,1,9.3,1.55c2.55.77,5.25.18,7.87.65a92.62,92.62,0,0,0,15.58,1.71c.92.48,1.84,1.53,2.77,0h.3a2.75,2.75,0,0,0,.94,1.78A.87.87,0,0,1,116.53,332.73Z"/><path d="M450.76,255.78c-.76,1.86-2.28,3.2-3.28,4.9a3.87,3.87,0,0,1-2.54,1.83c-.65-.81-.11-1.8.06-2.44.55-2.1.74-4.29,1.66-6.33,1.54-3.38,3.43-6.68,4.6-10.13,1-2.86,2.81-5.25,3.57-8.21a10.78,10.78,0,0,1,2-3.83c1.53-1.88,2.06-4.19,3-6.32a9.32,9.32,0,0,1,3.14-3.87c1.18-.81,2.39.35,3.58.66.83.21.51.83.42,1.37a1,1,0,0,0,.09.59c1.45,2.49.14,4.68-.7,6.93-.54,1.46-.45,3.06-1.28,4.48-1.16,2-1.62,4.3-3.3,6-1.41-.77-.7-1.71-.11-2.51s.83-1.38.08-2.11c1.67-3.38,1.62-7.22,2.83-10.72.14-.4.39-1.13-.23-1.37s-.76.39-1,.75c-.64.85-1.25,1.7-1.81,2.62-.7,1.16-.85,2.49-1.48,3.66-1.28,2.37-3.16,4.48-3.2,7.41,0,.42-.36.82-.51,1.25-.63,1.86-2,3.49-2,5.52a7.05,7.05,0,0,1-1.71,4.73A8.64,8.64,0,0,0,450.76,255.78Z"/><path d="M96,295.93c.53-.21.6-.8,1-1.15a1.37,1.37,0,0,1,2.3.29c.12.22.1.48.48.43,2.42-.32,4.15,1.37,6.06,2.31,2.65,1.31,5.09,3.06,8,3.81a8.71,8.71,0,0,1,3.1,1.28c2.76,2,6,3,9.19,4a30.77,30.77,0,0,1,6,2.89,9,9,0,0,0,1.59.48c3,1.09,5.89,2.28,8.91,3.18,3.78,1.13,7.4,2.8,11.34,3.42.93.14,1.73.87,2.75.86-.11.57.07,1.37-.68,1.54s-1.08-.46-1.51-.88c-.11-.11-.14-.3-.26-.37-.75-.5-1.49-.74-1.49.56,0,.59-.42.47-.66.65h0c-.78-1.63-2.27-1.88-4-.65-3.82-1.69-8.07-2.1-11.82-4-2.85-1.41-6.09-1.72-8.86-3.32a8.79,8.79,0,0,0-2.69-1.42,23.65,23.65,0,0,1-6.92-2.76c-2.49-1.32-4.87-2.93-7.78-3.35a3.84,3.84,0,0,1-1.77-.85,23.32,23.32,0,0,0-5.91-3.19,8.49,8.49,0,0,1-2.71-1.67c-1-1-2.13-1.56-3.37-.31C95.66,297.25,96.41,296.49,96,295.93Z"/><path d="M19.89,277.21c1.65.4,2.39,1.33,2.19,2.74a9.41,9.41,0,0,1-7.25,2.44c-4.19-.19-8.23-.76-11.7-3.67A8.57,8.57,0,0,1,0,271.86a16.22,16.22,0,0,1,5-12.29,8.36,8.36,0,0,1,7.46-1.83,5.4,5.4,0,0,0,2.82,0c1.74-.57,5.69,1.16,6.51,2.64-.48.65.56,1.89-.72,2.17a3.34,3.34,0,0,1-2.64-.16c-.38-.25-.78-.45-1.18-.68-.58-.34-1.13-.44-1.59.19l-4.41-.45a1.58,1.58,0,0,0-1,.17c-2.55,1.6-4.68,3.58-5.53,6.58a11.81,11.81,0,0,0-.89,4.31c.36,4.23,2.27,6.38,6.49,7.05.86.14,1.71.31,2.57.42,2.47.31,4.39-.94,6.29-2.25Z"/><path d="M178.06,277a2,2,0,0,1-1.44-1.24c-.42-1-1.08-.88-1.6-.11a13.82,13.82,0,0,1-5.07,4.27,4.68,4.68,0,0,1-4.09.45c2.75-.29,3.55-1.38,2.79-3,2.43-1.27,4.2-3.31,6.09-5.22a2.54,2.54,0,0,0,.71-1.49,20.45,20.45,0,0,1,2.9-8.71,11.5,11.5,0,0,0,1.38-4c.19-.91,0-1.21-1-.88a38,38,0,0,1-3.85,1,4.49,4.49,0,0,0-2.83,1.38c-1.19,1.75-3.46,2.14-4.47,4.32a29.55,29.55,0,0,1-3.19,4.67c-.24-.32-.16-1-.85-.84-.47.1-.6-.4-.4-.46,1.29-.37.82-1.52,1.13-2.32.67-1.77.56-1.92-1.37-1.88a3.13,3.13,0,0,1,1.22-1.49c.77,1.66,1.66-.52,2.53.06.2.13.69-.16.81-.55a1,1,0,0,0-.24-.85c-.25-.3-.53-.18-.83-.05-.55.26-1.11.49-1.67.73a40.27,40.27,0,0,1,3.92-4.24,8.74,8.74,0,0,1,11.5-.81c.95.66,1.6.84,2.2-.24.39-.69.83-.64,1.36-.23.24,1.4,1,2.86-.58,4a.85.85,0,0,0-.07,1.35.84.84,0,0,1-.35,1.46,2.27,2.27,0,0,0-1.19,1.57c-.17.65-1.11,1.25-.65,1.76.9,1,.2,1.51-.41,2.12-.3.31-.75.52-.65,1.11.19,1.14-.16,2.32.23,3.45l-.27.05c-.81-.42-.37-1.25-.61-1.86-.13-.34-.26-.73-.73-.59-.32.1-.89.33-.7.64.7,1.15-.48,1.14-.89,1.41a1.5,1.5,0,0,0-.46,2.48c.9.75,1,2,1.86,2.79Z"/><path d="M338.56,258.16c4.59.43,8.51-1.25,12.35-3.58s7.68-4.62,12.37-4.74a10.19,10.19,0,0,0,2.5-.63,3.06,3.06,0,0,1,2,0,1.37,1.37,0,0,1,.62,2.41c-1.53,1.55-3.36,2.73-4.69,4.55a22.28,22.28,0,0,0-3.44,5.6,8,8,0,0,1-.59,1.07c-2.08-.36-2.18-.51-1.67-2.53a6.73,6.73,0,0,0,.13-.9c.06-1.41,1.13-2.29,1.78-3.39.3-.52.61-1,.92-1.54-.47-.51-.75.14-1.1.08a.72.72,0,0,0-.82-.25c-1.33.59-2.82.92-3.84,2.06s-2.52,1.44-3.91,1.87A13.25,13.25,0,0,0,345.9,261c-2.87,1-6,.49-9,1.44l1,.65h0c-1.42.64-2.51,0-3.51-.92s0-2.2-.13-3.32c-.05-.51,1-1.16,1.35-.81C336.65,259.15,337.59,258.21,338.56,258.16Z"/><path d="M197.75,255.14c.6-1.38,1.95-1.89,3.12-2.55.76-.43,1.45.08,2.1.53,1.36,1,2.6,2,2.28,3.92-.06.32-.11.79.28,1s.74-.19,1-.47c1.34-1.27,2.14-3.11,4-3.84a18.55,18.55,0,0,1,6.19-1.33c.7.28.84.95,1.1,1.56s.64,1.25,1.38.33c.48-.61,1-.28,1.17.22.5,1.56-.14,3.21.22,4.8,0,.12-.17.8-.61.72-1.88-.34-1.17.56-.67,1.36a.49.49,0,0,1,.06.55c-.6,1,.07,2.43-1.16,3.2a5.68,5.68,0,0,0,.36.78c-.1.31-.2.62-.31.92-.63-.11-1.58-.09-1.52-.92.12-1.44-.76-.87-1.46-.73l.52-1.43a31.09,31.09,0,0,0,1.22-5.73c.12-1.25-.65-2-1.84-1.7-2.15.48-3.42,2-4.73,3.65a30.57,30.57,0,0,1-5.68,5.33c-.32-1.21-.25-2.61-1.9-3.37,1-.22,1.88-.34,2.07-1.34.07-.39.35-.79-.12-1.09s-.59.25-.89.35c-1.17.41-1.47,2-2.85,2.13-.15,0-.35.4-.37.62-.07,1-.77,1.07-1.5,1.15-.49-1.2.29-2.23.46-3.34.19-1.28-.37-.94-1-.63a2.73,2.73,0,0,1,1.16-2.75c.93-.6.09-1.46.1-2.15,0-.5-1-.4-1.53,0A7.13,7.13,0,0,1,197.75,255.14Z"/><path d="M116.53,332.73a.87.87,0,0,0-.29-1.28,2.75,2.75,0,0,1-.94-1.78,16.38,16.38,0,0,1,2.89.05c5.08,1,10.08-.57,15.16-.42,3.73.12,7.5.08,11.26-.05.74,0,1.7.5,2.23.35,2.34-.68,4.73-.36,7.08-.59,3.21-.3,6.45-.19,9.63-.89a4.36,4.36,0,0,1,3,.62,6.24,6.24,0,0,1-4.24,1.45,5.51,5.51,0,0,0-2.75.56c-.33.19-.54.59-1,.43-1.23-.43-2.38.44-3.61.24a.8.8,0,0,0-.87.86c.08.48.68.41,1,.36,1-.12,1.9-.34,2.85-.52-1.27,1.64-3,1.08-4.5.71a28.07,28.07,0,0,0-8.62-.39c-1.32.08-2.71-.16-3.91,0-3.25.51-6.42-1.14-9.58-.19a7.35,7.35,0,0,1-4.69.34.77.77,0,0,0-.59.1c-2,1.47-4.15.82-6.25.41C118.71,332.91,117.54,333.41,116.53,332.73Z"/><path d="M108.21,266.73a10.91,10.91,0,0,0,2.27-4.61,76.09,76.09,0,0,1,3.88-9.77c.81-1.35,2.18-2.5,1.63-4.38,0-.1.35-.32.54-.48a.76.76,0,0,1,.21,0c.72-.54,1-1.41,1.59-2,.26-.27.1-.93.72-.82.29,0,.35.37.31.62-.09.53.44,1.1-.13,1.58-.22.18-.92-.57-.75.39.12.67.75.36,1.1.6.86,1,1-.13,1.2-.48,1.77-3,3.49-6,5.23-9a1,1,0,0,0,1.11-.22c.77-1.06,1.68-.71,2.62-.37-.05,1.27-.85,2.25-1.36,3.34a43.66,43.66,0,0,1-4.19,7.68c-.38.39-.36,1-1,1.3a2.37,2.37,0,0,0-1.49,3.3c-1.57,2.7-4.07,4.79-5.07,7.86-.1.29-.49.49-.74.74-.66-.55-1.42-1-1.44-2.24-.76,1.11-1.16,2.32-1.9,2.93-1.46,1.2-1.87,3.15-3.43,4.19A1.28,1.28,0,0,1,108.21,266.73Zm11.12-16.13c-1.46.29-2.59,2.25-2.73,4.33C118,253.78,118.35,252.16,119.33,250.6Z"/><path d="M355.08,322c-1,.89-2.51,1.18-3.43,2.57.81.13,1.57.44,2-.14.87-1.2,1-.05,1.45.33a14,14,0,0,1-6.67.79,1.53,1.53,0,0,0-.74.07c-3.77,1.73-8,1.28-11.85,2.27-5.07,1.29-10.33.6-15.41,1.68a19.49,19.49,0,0,1-6.45.72c.7-.16,1.41-.28,2.09-.45,1.36-.35,2.87-.62,3.69-2.25-.71,0-.94.71-1.45.54-1.74-.59-3.42.47-5.21.11-.91-.19-.57-.6-.63-1,1.38-.21,2.75-.48,4.13-.63,3.89-.4,7.79-.65,11.66-1.16a37.93,37.93,0,0,1,9.23-.52,6.28,6.28,0,0,0,4-.8A1.07,1.07,0,0,1,342,324C346.36,323.43,350.66,322.33,355.08,322Z"/><path d="M491.5,249.59c.75-2.79,2.6-5.06,3.64-7.72,1.48-3.79,3-7.56,4.67-11.28,1-2.23,2.15-4.4,3.33-6.53a2.92,2.92,0,0,1,3.72-1.1,2.88,2.88,0,0,1-1.21,3.7c-3.29,4.77-7.51,14.18-7.14,16.07,1.16-1.58,1.27-3.78,3.13-4.79.12.19,0,.8.38.49s.45-.68.57-.06c.18,1,.81.42,1.24.54-.22.61-.39,1.16-1.17,1.43s-.85,1.2-1,1.88a4,4,0,0,1-1.74,2.72c-1,.72-.91,1.86-1.28,2.81-.13.33.29.32.52.37-.68.78-1.68.24-2.46.6a1.79,1.79,0,0,1-1.53.3c-.16-.13-.38-.22-.45-.38-.19-.43,0-1.12-.78-1.1s-.93.49-1.07,1.09S492.13,249.5,491.5,249.59Z"/><path d="M293.15,252.4c-.6.71-1.91,1.13-.95,2.44-.29,0,.08.92-.72.45a2,2,0,0,0-1.82,0c-.34.3-.35.58-.84.24-.68-.48-1.12,0-1.51.51-1-.21-1.55.84-2.42,1-1.38-.83-1.21-1.8-.32-2.9.26-.32.1-.69-.38-.78a10.32,10.32,0,0,0-3.6-.69c.53-.61,1.56-1.07.6-2.11-1.12-.21-.45-1.31-.92-1.84l.89.32a2.56,2.56,0,0,0,1.25.6c.12.36-.62,1,.14,1.08,1.59.17,3.16.72,4.79.44.93.66,1.63.51,2.62-.19,2.33-1.65,4.29-3.7,6.44-5.53,1-.88,2.1-1.71,3.15-2.56.46,0,.43,1.09,1.13.54.31-.23.79-.4.77-.87s-.63-.37-.94-.57a11.06,11.06,0,0,1,2.41-1.89c.44.67-.45,1.18-.28,1.87a3.3,3.3,0,0,1,1.76.23c.66.3,1.87-.31,1.47-.79-.74-.9,0-2.2-1.1-2.82A3.23,3.23,0,0,1,306,237c-.15.5-.53,1-.22,1.72,1.62-1.22,3.35-2,4.55-3.61s2.66-3.33,5.17-2.15a2,2,0,0,0,.6.05l0,0c-2.24,1.07-3.23,3.64-5.52,4.65-.09,0-.22.07-.26.15-1.55,2.7-4.38,4.14-6.32,6.45a5.9,5.9,0,0,1-2.63,1.61c-.59-.72-.93-1.09-2-.21-1.63,1.37-3.42,2.45-4.6,4.38C294.39,250.87,293.44,251.41,293.15,252.4Z"/><path d="M293.73,262.8s-.1.06-.11.11c-.95,2.89-3,5.45-2.53,8.79a4,4,0,0,0,2.07,3.35,11,11,0,0,0,5.76,1.54c1,0,1,0,.67.77-.2.39-.06.54.3.66s1,0,.92.75a11.08,11.08,0,0,1-4.28,1.51,15.18,15.18,0,0,0-4.92-1.21,6,6,0,0,1-2.91-3.1,2.52,2.52,0,0,0-1.38-1.5c-.29-1.19-.57-2.37-.88-3.56a2.64,2.64,0,0,1,.31-2.26c.39-.65,1.27-1.75.18-2.7a1.41,1.41,0,0,1,.11-1.57c.64-.43,1.94-.17,2-1.1s.44-2.14.16-3.22h0a1.7,1.7,0,0,0,.84-.83c.8-1.86,1.53-1.9,3-.45C294.24,260,293.71,261.43,293.73,262.8Z"/><path d="M108.21,266.73a1.28,1.28,0,0,0,1,.06c.09,1.22,2.48,2.43,0,3.65,0,0,0,.1,0,.14,1,1.62-.44,1-1,1.18a11.48,11.48,0,0,0-3.46,2.84,17,17,0,0,1-5.33,4.1c-.6-.58-1.23-.2-1.87-.08A41.09,41.09,0,0,0,92.27,280,7.82,7.82,0,0,1,87,276.76a.62.62,0,0,0-1-.1c-.75-.28-1.65-.23-2.21-1a8.74,8.74,0,0,0,3.54-3.61c1.07-2.17,2.47-4.19,3.72-6.27.83-.47,1.56-.08,2.31.23a.73.73,0,0,1,.38,1.2c-1,1.5-2.19,2.9-2.54,4.79a3.83,3.83,0,0,1-.64,2.15c-.93,1-.28,2.07.2,3s1.62.75,2.24-.2c3.45.08,6.23-1.53,8.74-3.64a24.71,24.71,0,0,0,5.53-5.65A5.64,5.64,0,0,1,108.21,266.73Z"/><path d="M321,276a2.37,2.37,0,0,1-1.53-.92c-.63-1.25-1.82-1.58-3.05-1.86a12.6,12.6,0,0,1-.85-7.37,17.7,17.7,0,0,1,2.83-7.66,20.82,20.82,0,0,1,5-5.64,1.44,1.44,0,0,1,1.69-.13,4.56,4.56,0,0,0,2.65.56,1.6,1.6,0,0,1,.64,2.28c-.4,1-1.78.88-1.86,2-.42-1.24-1.19-1.33-2.23-.72a4.59,4.59,0,0,0-2.07,2.55c-1.08,3.11-2.11,6.14-2.06,9.58.05,2.9.65,4,3.28,4.57A7,7,0,0,1,321,276Z"/><path d="M406.29,273.56a8.44,8.44,0,0,0-.61,2.75c-2.43-.24-5-.44-6.69-2.36-1.49-1.63-2.79-1.66-4.37-.35a2.47,2.47,0,0,1-.53.29c-.28-1.11-1.89-.37-2.2-1.45.67-.72,1.84.36,2.37-.95s1.88-1.36,3-.56c-.07-.55-.14-1-.18-1.54-.1-1.37.16-1.5,1.58-.79.21-.77-.23-1.38-.45-2.05-.07-.23-.17-.54.09-.69a.58.58,0,0,1,.56,0c1.21,1.46,1.75-.19,2-.66.84-1.46,1.83-2.08,3.79-1.2-.69-1.28-.18-1.86.68-2.33.45-.24.77-1.11.36-1.08-1.1.07-.47-.3-.32-.66.29-.68,1.05-.73,1.59-1.18l-1-1.15a29.1,29.1,0,0,0,2.47-4.6c.88-.88,1.76-.48,2.6,0s.18,1.15.05,1.74a4.34,4.34,0,0,1-.73,1.95.71.71,0,0,0,.16,1.16,21.15,21.15,0,0,1-4.17,6.63c-1.1,1.08-2.11,2.26-3.3,3.26a2.59,2.59,0,0,0-.48,3.89C403.5,272.77,404.57,273.92,406.29,273.56Z"/><path d="M509,249.32a4.38,4.38,0,0,1-.64,4.3,20.11,20.11,0,0,1-5.59,6.13c-1.25.86-1.43,1.88-1,3.41a34.49,34.49,0,0,0,2.79,7.21,2.12,2.12,0,0,0,1.71,1.31c2.29.19,4.67.35,6.43-1.54,1-1.09,2.47-.71,3.61-1.37.5-.3.86.41.82,1a2.58,2.58,0,0,1-.81,1.92c-1.25,1-2.38,2.26-4.12,2.47-3,.35-5.93,1.36-8.81-.32-.39-.24-.88-.38-1.09-.8A56.09,56.09,0,0,1,498,263.1c1.88.26,1.73.24,2-1.64.16-1-.56-2.38,1-3a.69.69,0,0,0,0-1.16,3.93,3.93,0,0,0,1.09-.52c1.7-1.7,4.41-2.75,3.87-5.91C507.59,251.56,508.41,250.67,509,249.32Z"/><path d="M326.57,257.3c.08-1.14,1.46-1,1.86-2a1.6,1.6,0,0,0-.64-2.28,3.79,3.79,0,0,1,4.92-2.45c-.19.55-1,.21-1.25.89a6.6,6.6,0,0,1,3.08,4c-.93-.2-1.25-1-1.57-1.71a.86.86,0,0,0-.77-.65c-.52,0-.23.45-.34.68a1.55,1.55,0,0,1-.37.44c-1.22,1.17-1.24,2.12-.07,3.3a2.31,2.31,0,0,0,3.28.18c.93-.77.22-1.52-.16-2.24.52,0,1.12.18,1.2.71.26,1.73,1.57,1.62,2.78,1.75a2,2,0,0,0,0,.24c-1,0-1.91,1-2.95-.11-.33-.35-1.4.3-1.35.81.12,1.12-1,2.27.13,3.32s2.09,1.56,3.51.92c-1.39,2.37-2.91,4.65-4.18,7.1a9.56,9.56,0,0,1-3.61,3.7c-.85.51-1.71,1-2.53,1.55A7.1,7.1,0,0,1,321,276a7,7,0,0,0,2.45-2.75c1,.26,1.78-.44,2.57-.8,3.65-1.64,6.68-3.93,7.55-8.17.24-1.17-.12-2.29-1.21-2.47C329.57,261.35,328,259.41,326.57,257.3Z"/><path d="M108.15,271.76c.61-.16,2.08.44,1-1.18,0,0,0-.14,0-.14,2.47-1.22.08-2.43,0-3.65,1.56-1,2-3,3.43-4.19.74-.61,1.14-1.82,1.9-2.93,0,1.22.78,1.69,1.44,2.24-1.23.84-1.77,2.21-2.53,3.4-1.67,2.6-2.54,5.44-1.52,8.5s3.07,3.67,5.7,2.08a21.29,21.29,0,0,0,1.75-1.24c2.32-1.73,3.76-4.27,5.81-6.26-.2.67,1.17.84.61,1.38s-.76,1.45-1.75,1.58c-.68.09-1,.67-.92,1.37,0,.36.1.75-.31.93-1.1.46-.46,1.12-.21,1.74.12.31.63.44.42.89-.47,1,.28,1.09.91,1.28-.2.45,0,.79.26,1.14-2.39-.51-4.41.5-6.54,1.38a8.89,8.89,0,0,1-6.14-.07,2.78,2.78,0,0,1-1.9-1.88C109,276,108,274,108.15,271.76Z"/><path d="M488.81,263.77a2.1,2.1,0,0,0-1.4,1.83c-.16,2-1.79,3.46-2.21,5.41-.18.82-1.29.63-1.95,1-.93.31-1.84.68-2.79.91-.68.16-1.5-.06-2.08.23a16.52,16.52,0,0,1-6.81,1.4l-.61-.32a5.36,5.36,0,0,0-2.45-.62L465.79,272a8.09,8.09,0,0,1,.42-1.87c.3-.65.55-1.62,1.68-1.16,1.57,2.09,4,2,6.2,2.25.9.11,2-.84,2.93-1.46,3.14-2.15,5.55-5.06,8-7.9,1.5.87.14,2,.16,3.11.77-.28,1.05-1.17,1.92-1,.25.05.2-.39.24-.63.11-.61-.79-1.49,0-1.72s.37,1.25,1.15,1.52C488.61,263.21,488.49,263.66,488.81,263.77Z"/><path d="M152.09,319.25c.24-.18.66-.06.66-.65,0-1.3.74-1.06,1.49-.56.12.07.15.26.26.37.43.42.87,1,1.51.88s.57-1,.68-1.54c1.07,1.24,2.68.51,4,1.1,3.67,1.61,7.62,2.43,11.49,3.46,1.94.52,3.95.79,5.88,1.36.34.1.87,0,.94.4.29,1.67,1.37,1.26,2.42,1,.14,0,.32-.13.44-.09,2.57,1,5.44.71,7.95,1.93a2.32,2.32,0,0,1-1.33,0,15.23,15.23,0,0,0-5.47,0c.09.58.5.61.8.76a52.07,52.07,0,0,0,5.69,2c-1.43.64-2.87-.31-4.3,0-.19-.43-.57-.27-.88-.37-1-.31-2.48.87-3.13-.78.34-.49,1.09.06,1.38-.91-1.36.39-2.23-.84-3.5-.7l-.62-.27a31,31,0,0,0-4.93-.87c-1.89,0-3.57-1.27-5.43-1.49-4.39-.52-8.31-2.65-12.62-3.48A15.78,15.78,0,0,1,152.09,319.25Z"/><path d="M479.88,293.17a21.4,21.4,0,0,0-5.51-.92,57.31,57.31,0,0,0-7.41-.19c-.59,0-1.2-.48-1.8-.74a1.24,1.24,0,0,0-1.5-.2c-1.33.54-2.7,1.09-4.19.52a1.93,1.93,0,0,0-1.33.17,30.26,30.26,0,0,1-4.28,1.34,12.14,12.14,0,0,0-1.88.33h0c.19-.86.17-1.81,1.51-1.81.65,0,.83-.63.64-1.26a8.62,8.62,0,0,1,4.14-1.24,1.57,1.57,0,0,0,.75-.05c3.56-1.5,7.28-.95,10.94-.75,4.06.22,8.18.28,12.08,1.75.78.92,1.55,1.86,2.35,2.77.28.3.4.56.15.93s-.49.21-.84,0A5.6,5.6,0,0,0,479.88,293.17Z"/><path d="M467.89,269c-1.13-.46-1.38.51-1.68,1.16a8.09,8.09,0,0,0-.42,1.87,23,23,0,0,1-1.33-7.17c.08-3.36,1.66-6.11,2.84-9.06a4.22,4.22,0,0,0,.19-3.27c-.55-1.41-1.58-1.8-3.08-1.86-2.93-.11-4.18,2-5.71,3.86,0-.64-.5-.64-.91-.79s-.71-.37-.45-.61c1.33-1.19.88-3.16,2-4.41,2.49-1.13,5.13-.91,7.75-.82a3.25,3.25,0,0,1,2.9,3.72c0,.37-.46,1.06.6.87.54-.09.53.43.23.85-.49.71-1.11,1.28.13,2.11.89.59-.06,1.81-1.72,1.94.9,1.09.36,2.05-.11,3.09a13.58,13.58,0,0,0-1.56,4.91c0,.18,0,.47-.12.54-1.41.89-.93,1.64.12,2.41C467.74,268.45,467.79,268.76,467.89,269Z"/><path d="M144.74,254.56c1.83-.52,3.52.2,5.23.65a3.56,3.56,0,0,1,2.73,2.94,12.16,12.16,0,0,1-1,7.94c-1.16,2.52-2.51,5-3.43,7.59a3,3,0,0,0,.9,3.17,2.9,2.9,0,0,0,3.17.35,20,20,0,0,0,5-3.07c-.57,1.93-.57,1.93,1.47,1.94.12,0,.24.15.37.24-1,2.37-4.29,4.39-7.15,4.25a15.32,15.32,0,0,1-3.13-.49c-2.51-.65-3.59-2.4-4.12-4.7a14.26,14.26,0,0,1,2.31-2.87c.81-1,.21-2,.69-2.87.31-.58.21-1.75,1.07-1.56,1.18.25,1.13-.53,1.36-1.12.16-.42.06-.94.42-1.28,2.11-2,1.75-4.13,0-6.45-.1,1.45-1.3,2-1.86,3,.14-.54.26-1.08.41-1.61.65-2.34-.57-3.64-3-3.14-.39.08-.75.3-1.17.12.18-.86.9-1.3,1.58-1.78C146,255.24,145.17,255.17,144.74,254.56Z"/><path d="M488.81,263.77c-.32-.11-.2-.56-.29-.6-.78-.27-.39-1.74-1.15-1.52s.11,1.11,0,1.72c0,.24,0,.68-.24.63-.87-.19-1.15.7-1.92,1,0-1.11,1.34-2.24-.16-3.11-.13-.93.81-1.33,1-2.09.3.91.73,1.37,1.8.87a3,3,0,0,1,3.1.17,7.83,7.83,0,0,1,.69-3.4c.09-.18.24-.46-.07-.45-1.51,0,.14-.72-.26-.94a6.22,6.22,0,0,0,1.25-2.37,13.05,13.05,0,0,1,2.63-4.64,1.79,1.79,0,0,0,1.53-.3c-.12.71-.25,1.43.59,1.83.75.77.62,1.84.93,2.75-.74.82-1.09,1.94-2.07,2.58-.62.41-.37.75.17,1.14a4,4,0,0,0,4.64.26.69.69,0,0,1,0,1.16c-1.52.64-.8,2-1,3-.31,1.88-.16,1.9-2,1.64a2.17,2.17,0,0,1-.07-.24c0-1.48-1.1-2.51-1.66-3.75-.21-.49-.74-.15-.78.15-.14,1.14-1.53,2.2-.24,3.45.11.11,0,.47-.05.72a5.9,5.9,0,0,0-3.69.59c-.12-.09-.35-.18-.34-.26.17-2.6-1-.73-1.59-.45a2.75,2.75,0,0,0-.55.48Z"/><path d="M479.88,293.17a5.6,5.6,0,0,1,3.81.64c.35.21.54.45.84,0s.13-.63-.15-.93c-.8-.91-1.57-1.85-2.35-2.77,3,.95,6.18,1.22,8.68,3.63,1.26,1.22,2.59,2.44,3.92,3.62s2.14,5.55,1.78,7.47a11.4,11.4,0,0,1-2,5.11,9.72,9.72,0,0,1-2.23,2.25c-1.58-1.42-3.58-1.91-5.55-2.47,1.21-.39,2.26-1.06,3.74-.72s2.88-1.32,3.21-3.36c.52-3.13-.74-5.29-3.13-7.36-2.89-2.51-6.24-3.68-9.76-4.68A3.88,3.88,0,0,1,479.88,293.17Z"/><path d="M287.63,332.14h-.28a2.54,2.54,0,0,0-2.59-.94c-.9.21.46.92-.13,1.3s-.61-1.12-1.35-.45c-1.4,1.28-3.17,1-4.83,1.06-1,0-1.93.11-2.47,1.11a3.43,3.43,0,0,0-3.68,0c-1.36.76-3,.48-4.51.58s-3.13,0-4.7,0c.3-1.31,1.55-1.33,2.47-1.76.73-.33,1.45-.57,1.19-1.59,2.33-.47,4.68-.77,7-1.23a72.93,72.93,0,0,1,12.93-1.53,2,2,0,0,1,.18.72c-.07.59-.11,1.21.47,1.47s.86-.42,1.13-.79a1.08,1.08,0,0,1,1.5-.42c.79.29,1.58.6,2.42-.39a1.7,1.7,0,0,1,2.66-.17,1.76,1.76,0,0,0,2.12.29c1-.95,2.29-.71,3.33-1.28l.31.28c.52.71.25,1.22-.51,1.31a9.67,9.67,0,0,1-2.85.3,2.3,2.3,0,0,0-2.56.91c-.32.52-.66.65-.81-.12-.06-.28-.23-.37-.4-.19-.63.67-1.22.1-1.82,0-1.58-.3-2.66,1.37-4.24,1.07Z"/><path d="M410.56,257.91a.71.71,0,0,1-.16-1.16,4.34,4.34,0,0,0,.73-1.95c.13-.59.78-1.21-.05-1.74s-1.72-.92-2.6,0c-.32-1.05-.79-1.27-1.54-.32a41.58,41.58,0,0,0-3.69,5.5,9.77,9.77,0,0,0-1.5,4.25c-.57.17-1.05-.65-1.69-.1-.25.22-.52-.09-.46-.35.31-1.55-.73-3.13.36-4.9l-1.28.84a23.9,23.9,0,0,1,3.5-6.38,7.44,7.44,0,0,0,.92-1.39c.84-1.86,2.86-2.38,4.34-2.62a13.45,13.45,0,0,1,4.05.58c.69.14,1.49.6,1,1.91-.28.71.33,1.77.13,2.82A18.27,18.27,0,0,1,410.56,257.91Z"/><path d="M144.74,254.56c.43.61,1.21.68,1.88,1.22-.68.48-1.4.92-1.58,1.78-2.4.09-4.11,1.37-5.78,3-1.41,1.35-2.56,3-4.34,4-.64.36-1,1.25-1.44,1.94a4.33,4.33,0,0,1-1.92,1.89l-.06-.08a7,7,0,0,1,1.85-3.38c1.15-1,1.69-2.63,3.35-3.19,1.22-.41.49-1.9,1.15-2.78.23-.31-.81-.74-1.3-1.08s-1.08,0-1.62.08v-1.22c1-1.33,2-2.65,3-4a1.12,1.12,0,0,0-1.33.07c-.28.18-.58.55-.92.21s.06-.65.15-1c.29-.93,1.38-1.57,1-2.74,1,.53,1.67,0,2.32-.77s1-1.79,1.91-2.27c-.41,2.1-.2,2.32,2.15,2.19a12.21,12.21,0,0,1,1.33-.31c.93-.13,1.23.59,1.51,1.24s-.27,1-.77,1.26a9.64,9.64,0,0,1-1.36.69c-.71.24-1.58.74-1.62-.69a66.68,66.68,0,0,1-4.44,5.42C140.15,255.34,142.34,254.42,144.74,254.56Z"/><path d="M454.12,290.4c.19.63,0,1.26-.64,1.26-1.34,0-1.32.95-1.51,1.81-.76-.83-1.4-2.5-2.56-.33a.58.58,0,0,1-.53.12c-1.58-.76-3,.85-4.53.38-.15,0-.5.23-.58.42C443,296,441,296,439.52,296.57c-1.95.78-2.09.59-1.66,2.71-2.13,0-4,1-6,1.53s-3.78,2-5.95,2.22a.78.78,0,0,0-.74-1.08c-.72-.07-.29.61-.46.82-.52.65-1.14,1.38-2.1,1-.63-.23-.75-.08-1.11.46-.54.79-1.28,1.57-2.51.77a3.92,3.92,0,0,0-1.78-.24.68.68,0,0,0-.72.47c-.09.36.28.33.51.39s.39.21.26.43c-.29.43-.79,1-1.21.78-1-.45-2.28-.39-3-1.42a42.2,42.2,0,0,0,4.61-2.43c.19.25.43.51.76.38a33.61,33.61,0,0,1,4.13-1.45c1-.23,1.76-1.27,3-.8.84-1.44,2.3-.78,3.5-1.05a4.35,4.35,0,0,0,2.27-1c.67-.63,1.89-.67,2.35-1.74a.76.76,0,0,1,.54.12c1.57,1.44,1.36-.7,1.88-1.08.8-.59-.12-1.05-.66-1.4,4-1.09,7.78-2.85,11.89-3.52Z"/><path d="M49.05,246.24c.25.92.42,1.91,1.77,1.74.8-.1.27.87.76,1,1.44-.43,1-1.88,1.51-2.78.39,2.86.72,5.74,1.21,8.59.29,1.67.5,3.42,1.62,4.84.8,1,.81,2.28,1.12,3.45a7.62,7.62,0,0,0-.77.73.35.35,0,0,0,0,.53c.63.49.5.48.49,1.11,0,.8-.93,1.3-.81,1.87a14.56,14.56,0,0,0,1.37,4.1c.55,1,.38,2.54,1.85,3-.34-.06-.78,0-1-.2-1.3-1.1-1.26,0-1.35.8-.07.54.12,1.22-.4,1.55-1.26.8-1.59,2.16-2.18,3.36a2,2,0,0,1,.19-1.76c1.88-3.22,1.24-6.57.53-9.92-1-4.44-2.76-8.58-4.28-12.84A39.49,39.49,0,0,1,48.86,247,2,2,0,0,1,49.05,246.24Z"/><path d="M358.15,272a4.29,4.29,0,0,1,2.73.56l.09,3.31a10.82,10.82,0,0,1-5.26-1.27.87.87,0,0,0-1.1.15c-1.38,1.23-3.16,1.62-4.8,2.31a3.11,3.11,0,0,1-3.06-.27c-1.15-.94-2.3-.71-3.46-.58a3.15,3.15,0,0,1-3.5-2.4c.71.25.72-.31.8-.74.11-.59.33-1.05,1-1.08.47,1.12,1.58,1.36,2.54,1.77s1.52.16,1.79-.92a4.37,4.37,0,0,1,1.63-3,.62.62,0,0,0,.28-.79c-.17-.41-.54-.43-.9-.41-2.36.18-4.29,1.06-5.35,3.33a1.32,1.32,0,0,1,.22-2c1.67-1.53,3.95-2,5.82-3.22.07,0,.43.16.46.29.11.48.16.94.84.72a.7.7,0,0,0,.53-.68,1,1,0,0,0-.91-1.07,4.9,4.9,0,0,1-1.75-.47c1.86-.53,3.33.29,4.69,1.41.62.51,1.17,1.11,1.75,1.67a2.12,2.12,0,0,0,.2,3.24c-.95.15-.95.15-1.46.76-.58-.63-1.14-1.29-1.76-1.89s-1.09-1.13-1.94-.38a2.37,2.37,0,0,0-.69,2.89c.42,1,1.37.58,2.14.38.46-.12.78-.71,1.37-.43-.5,1.46-2,1.9-3.05,2.82,1.89-.45,3.53-1.59,5.53-1.42a.62.62,0,0,0,.52-.26c.79-1.79,1.7-1.1,2.68-.18.36.33,1.17.67,1.29.22C358.27,273.68,359.06,272.83,358.15,272Z"/><path d="M159.15,276.31c-.13-.09-.25-.24-.37-.24-2,0-2,0-1.47-1.94a3,3,0,0,0,1.87-2.77,15.68,15.68,0,0,1,3.69-8.53c1.93,0,2,.11,1.37,1.88-.31.8.16,2-1.13,2.32-.2.06-.07.56.4.46.69-.14.61.52.85.84-.28.92-.6,1.83-.84,2.76-.77,3,1.42,7.66,5.13,6.19.76,1.66,0,2.75-2.79,3a3.9,3.9,0,0,1-2.77-1.4c-.9-.84-2.17-1.28-2.75-2.49C160.07,275.87,159.57,276.14,159.15,276.31Z"/><path d="M393.72,246.24c.1-.12.17-.31.29-.35,2.08-.75,1.86-2.09.94-3.62a44.43,44.43,0,0,0,7.84-1.24c1.51-.4,3.09-.26,4.65-.56,3.36-.65,6.54-2,9.93-2.48a12.21,12.21,0,0,1,1.21-.2c.42,0,1.07-.33,1.18.27s-.58.53-1,.72a38.9,38.9,0,0,0-7,3.59c-1.16.84-2.74.89-4.09,1.45-2.6,1.08-5.5,1.14-8.15,1.91A13.09,13.09,0,0,1,393.72,246.24Z"/><path d="M82.23,239.91c-1.2,2.94-3.29,5.32-4.92,8a37.67,37.67,0,0,0-2.61,5.43c-.34.83-1.07,1.34-1.37,2.15-.11-1.2-.93-2.36-.11-3.61.16-.24.06-.59-.4-.62-.64-.06-1.25-.5-1.91-.1a2.55,2.55,0,0,1,.86-1.21c1,.51,2,.69,2.75-.33a6.87,6.87,0,0,1-2.18-.36,2.89,2.89,0,0,1,.41-1.61c2.39-3.93,4.25-8.2,7.57-11.51a6,6,0,0,0,3-2.12c.19-.26.39-.55.72-.33s.14.54,0,.8a3.5,3.5,0,0,1-.37.49C82.41,236.4,81.52,237.93,82.23,239.91Z"/><path d="M197.75,255.14a7.13,7.13,0,0,0,.68-.33c.56-.36,1.54-.46,1.53,0,0,.69.83,1.55-.1,2.15a2.73,2.73,0,0,0-1.16,2.75c-1.6,2.14-3.55,4-5,6.29-1.68,2.74-3.3,5.56-5.23,8.1-.85,1.11-1.29,3.41-3.59,3.1a3.12,3.12,0,0,0,.88-1.72c.17-.91-.39-2.89,1.77-2.69.2,0,.34-.11.33-.39-.09-2.31,1.57-3.68,2.84-5.26a12,12,0,0,0,1.94-3.66c-1,.84-1.72,2.09-3.18,2.26a.31.31,0,0,0-.06.14c-.16,1-1,1.18-1.75,1.5C190.77,263.1,193.53,258.52,197.75,255.14Z"/><path d="M258.87,277.24a4.29,4.29,0,0,1-3.67,1.49,16,16,0,0,1-4.78-.84,9.14,9.14,0,0,1-5.86-9.22,9.29,9.29,0,0,1,3.82-6.16c-.41,1.52.65,1.13,1.74.95-1,1.67-2.34,2.94-1.53,4.77-.67.17-1-.59-1.47-.09-.08.08-.05.27-.07.41,1.33.16.71,2,1.92,2.24.68,3.22,2.69,4.5,6.77,4.29.82.49,1.84.7,2.2,1.8C258,277.08,258.55,277.12,258.87,277.24Z"/><path d="M398.68,257.94l1.28-.84c-1.09,1.77,0,3.35-.36,4.9-.06.26.21.57.46.35.64-.55,1.12.27,1.69.1a16.14,16.14,0,0,0,4.26-4.83l1,1.15c-.54.45-1.3.5-1.59,1.18-.15.36-.78.73.32.66.41,0,.09.84-.36,1.08-.86.47-1.37,1.05-.68,2.33-2-.88-2.95-.26-3.79,1.2-.27.47-.81,2.12-2,.66a.58.58,0,0,0-.56,0c-.26.15-.16.46-.09.69.22.67.66,1.28.45,2.05-1.42-.71-1.68-.58-1.58.79,0,.5.11,1,.18,1.54-1.12-.8-2.52-.62-3,.56s-1.7.23-2.37.95c.31,1.08,1.92.34,2.2,1.45a13.3,13.3,0,0,1-5.27,1.49,1,1,0,0,0-.52-1.31,5.89,5.89,0,0,0-3.39-1.18c-.86.07-1.73.1-2.59.12-.47,0-1-.07-1.06-.66s-.33-1.16.55-1.3a9.5,9.5,0,0,0,6.13,1,14.93,14.93,0,0,0,8.08-3.94,2.54,2.54,0,0,0,.56-2.15,7.27,7.27,0,0,1,.82-4.3C398.05,260.49,398.11,259.13,398.68,257.94Z"/><path d="M215.86,263.72l-.52,1.43c.7-.14,1.58-.71,1.46.73-.06.83.89.81,1.52.92-.86,1.72-1.61,3.49-2.62,5.15-1.31,2.17.68,5.28,3.44,5.55a4.39,4.39,0,0,0,3.82-1.16,1.81,1.81,0,0,1,1.17-.66c.16.86.6,1.06,1.39.66a16.27,16.27,0,0,1,1.68-.66c-2.32,4.36-5,5.56-9.22,4.35-2.07-.58-4.61-1.67-5.49-4.33-.74-2.2.08-6.7,1.54-8a1.2,1.2,0,0,0,1.91.72c.81-.43-.21-1,.06-1.54l-1.62-.69A4.13,4.13,0,0,1,215.86,263.72Z"/><path d="M389.43,285.82c-.14-.07-.27-.15-.41-.21-.69-.26-1.81-.11-1.9-1s1.14-.33,1.56-.86a3.51,3.51,0,0,1,.44-.42h0c.52,1.59,1.65.65,2.51.55s.18-.77.25-1.17h2.76c.18.8.35,1.73,1.46,1.41a3.07,3.07,0,0,0,2.22-1.39c.92.44,1.84-.13,2.76,0a3,3,0,0,0,3.76.91,3.3,3.3,0,0,1,1.19-.17c.44-.06,1.06,0,1.11-.6s.35-.65.75-.34a.89.89,0,0,0,1.51-.26.52.52,0,0,1,.79-.2c.78.64,2.28-.15,2.63,1.33,0,.06.22.15.26.12,1.22-.78,2.74,0,3.95-.82a9.69,9.69,0,0,1,4.38.11c1.26.31,2.58-.42,3.93-.11a3.93,3.93,0,0,1,2.16,1,.77.77,0,0,1,.18,1c-.18.3-.52.25-.83.21-6.27-.73-12.57-.26-18.86-.49a5.81,5.81,0,0,0-1.81.19c-2.58.67-5.21.51-7.83.61A56.63,56.63,0,0,0,389.43,285.82Z"/><path d="M82.23,239.91c-.71-2,.18-3.51,1.41-4.93a3.5,3.5,0,0,0,.37-.49c.15-.26.33-.59,0-.8s-.53.07-.72.33a6,6,0,0,1-3,2.12,5.07,5.07,0,0,1,2-2.64,25.83,25.83,0,0,1,5.54-4c3.17-1.54,6.38-1.95,9.68-.46.1,1.15.21,2.31.31,3.46a9.84,9.84,0,0,1-3.29-.55,4.29,4.29,0,0,0-3.62.61,39.84,39.84,0,0,0-6.72,4.47C83.23,237.9,83,239,82.23,239.91Z"/><path d="M429.89,255.74a1.69,1.69,0,0,1,.61-2,2,2,0,0,0,.39-2.31c.75,0,.86.92,1.7,1-.62-.59.53-1.26-.23-1.77-.5-.33-.62-1.35-1.3-1.12-1,.32-2.3.7-2.62,1.69-.51,1.63-1.82,1.1-2.8,1.46,2.32-3.08,5.13-4.82,9.27-4.28a7.37,7.37,0,0,1,5.81,3.86,2.92,2.92,0,0,1-.09,3.51c-.8,1.11-1.15,2.64-2.94,2.83a2.31,2.31,0,0,1-2.53-1.25c-.51-.94.33-1.4.84-1.9s1.49-1.1.58-2.07c-.68-.73-1.33-1.38-2.6-.85C432.3,253.3,431.28,254.74,429.89,255.74Z"/><path d="M92.93,277c-.62.95-1.73,1.12-2.24.2s-1.13-1.93-.2-3a3.83,3.83,0,0,0,.64-2.15c.35-1.89,1.52-3.29,2.54-4.79a.73.73,0,0,0-.38-1.2c-.75-.31-1.48-.7-2.31-.23a1.25,1.25,0,0,1,.41-1.12l0-.11c.94,0,1.32-.56,1.4-1.41,0-.34-.15-.75.22-1,1.35-.81.45-1-.33-1.25l-.38-.55c.3-.44,1-.45,1.16-1.13a7.64,7.64,0,0,0-3.27-1c-.87-.09-2.47.09-1.64-1.81.24-.57-.27-1-.8-1.28a4.64,4.64,0,0,1,5.25,1.2c.68,1.17,1.93,2.2.93,3.79-.09.14,0,.37,0,.63.9-.1,1.33-.9,2.08-1,0,.48-.24,1.1.3,1.39s.79-.44,1.1-.75a5.13,5.13,0,0,1,2-.91,61.53,61.53,0,0,1-5.1,9.37c-1.25,2-1.75,4.3-2.57,6.47C91.39,276.2,92.16,276.66,92.93,277Z"/><path d="M383.29,239.82c.69,1.57-.62,2.37-1.31,3.42-2.78-.3-5.44-.24-7.73,1.76-.89.78-4.87.37-5.82-.37-.6-.47-.55-.82-.21-1.52,1.27-2.62,3.6-3.2,6.12-3.51,2.11-.26,4.18-.94,6.36-.55A5.47,5.47,0,0,1,383.29,239.82Z"/><path d="M143.2,248.42c-2.35.13-2.56-.09-2.15-2.19.35-2.49,1.92-4.43,3-6.6,1.15-2.4,3.26-4.31,3.54-7.17.09-.92-.14-1.34-1-1.52.68-1.51.42-2.18-.88-2.21a2.11,2.11,0,0,0-1.32.65c.22-1,1.89-2.13,3.24-2.1.2,0,.41.05.61.08,3.21.5,3.13.49,2.65,3.61a11,11,0,0,1-2.69,5.22,5.06,5.06,0,0,0-1.21,2.45c-.32,3-2.18,5.2-3.36,7.76C143.32,247,142.87,247.65,143.2,248.42Z"/><path d="M54.25,280c.59-1.2.92-2.56,2.18-3.36.52-.33.33-1,.4-1.55.09-.78.05-1.9,1.35-.8.22.19.66.14,1,.2l.32,0c0,.86.92,1.6.24,2.61-.11.17.77,1,1.24,1.52.05.06.38-.07.53-.18s.15-.35-.08-.47c-.82-.42-.46-.89-.17-1.49.49-1,1.77-2.09-.08-3.09-.18-.1-.1-.67-.14-1,.77-1,1-2.34,2.05-3.16.57.09.53.79,1,1-.31.95.66,2,.19,2.71-.82,1.16,0,1.73.42,2.5a13.61,13.61,0,0,1-3.33,4.42,5.47,5.47,0,0,1-1.94,1.38,3.33,3.33,0,0,0-1.8,1.53c-.6,1-1.39,1.38-2.44.61-1.22-.87-.68-2.23-.94-3.36Z"/><path d="M249.88,260.94c1.54-1,3.11-2.37,5-2.24,2.57.18,4.62,1.77,6.32,3.66.8.9.25,3.08-.89,4.11a4.34,4.34,0,0,1-4.71.41,1.21,1.21,0,0,1-.66-1.41c.36-1.51-.46-1.45-1.53-1.27-.64.11-1,.61-1.65.75,0-.65-1.54-2,.77-1.64.36.05.92-.6.86-1.39-.94.36-2-.25-2.92.65A1.15,1.15,0,0,0,249.88,260.94Z"/><path d="M77.88,279.75c-2.34-.3-4.28-3.62-4.58-6-.42-3.43.83-6.35,2.65-9.15,2.09-3.21,4.34-6.25,7.76-8.19.9.58,2.75-.11,2.58,1.94-1.18.27-1.67-1.3-2.87-1.11a2.4,2.4,0,0,1-1.6,3.76c-.75.15-1.38.27-.85,1.24-.2,1-1.22,1.3-1.61,2-1.06,1.81-3.73,2.73-3.13,5.47,0,0,0,.08-.08.13-2.1,3.4-2,4.15,1.11,6,.26,1.17-.3,2.55.89,3.49A2.57,2.57,0,0,1,77.88,279.75Z"/><path d="M144.38,229.38a2.11,2.11,0,0,1,1.32-.65c1.3,0,1.56.7.88,2.21-.55.18-.74.65-1,1.1-1.47,2.73-3,5.43-4.43,8.19-1.52,2.91-2.95,5.86-4.41,8.8-.71-.94-1.6-.48-2.46-.32a3.44,3.44,0,0,1,.54-2.15c2.06-4.4,4.72-8.47,6.75-12.89A14.37,14.37,0,0,1,144.38,229.38Z"/><path d="M358.15,272c.91.79.12,1.64-.07,2.36-.12.45-.93.11-1.29-.22-1-.92-1.89-1.61-2.68.18a.62.62,0,0,1-.52.26c-2-.17-3.64,1-5.53,1.42,1.06-.92,2.55-1.36,3.05-2.82l.88-.57c.51-.61.51-.61,1.46-.76a2.12,2.12,0,0,1-.2-3.24c.79.42,1.14,0,1.52-.67.93-1.69.67-3.67,1.41-5.41a7.27,7.27,0,0,1,1.92-3.19,6.82,6.82,0,0,1-.13.89c-.51,2-.41,2.17,1.67,2.53-1.06,2.42-.61,5.25-2.05,7.58C357.14,271.11,357.53,271.63,358.15,272Z"/><path d="M361,275.91l-.09-3.31c1.55-.6,3.26-.33,4.83-1.15a18,18,0,0,0,5.58-4.52c.91-1.08,1.87-2.13,2.81-3.19.19.51,1,.87.37,1.57s-1.33.79-1.24,1.9,1.17.84,1.53,1.47a20.34,20.34,0,0,1-7.3,6.14A11.29,11.29,0,0,1,361,275.91Z"/><path d="M459.35,248.7c-1.13,1.25-.68,3.22-2,4.41-.26.24.17.5.45.61s.93.15.91.79l-.58.35a2.13,2.13,0,0,0-1.85-.62v0c.16-.9-.33-1.31-1.09-1.66-1-.46-.91.54-1.23.89a5.31,5.31,0,0,1-2.59,1.7,107.61,107.61,0,0,0,6.11-11.08,28.87,28.87,0,0,1,4.32-7.32c.75.73.47,1.37-.08,2.11s-1.3,1.74.11,2.51a10,10,0,0,1-1.92,5.4A2.22,2.22,0,0,0,459.35,248.7Z"/><path d="M276.87,248.7c1.45-2.95,2.84-5.89,5.31-8.26a24.56,24.56,0,0,0,3.49-5.17c.37-.6,1.22-1,1.15-2.18-1.95,1.43-4,2.23-5.65,3.74-1.13,1-2.61,1.67-3.6,2.93-.2.25-.58.1-.85-.08-.69-.43-1-2.68-.4-3.24,2.62-2.44,5.26-4.86,8.86-5.81-.22.4-.43.81-.64,1.21-1.85.55-3,2.09-4.57,3.08-.9,1-2.54,1.33-2.55,3.27,1.44-.57,2.05-1.73,2.85-2.66.54-.47,1.29-.92,1.86-.65s1,0,1.42-.35c.95-.89,1.89-1.8,2.83-2.7a2.53,2.53,0,0,0,2.08.73c.84-.19.86.3.59.88a1.13,1.13,0,0,0-.2.87h0a3.32,3.32,0,0,0-2.32,2,13.46,13.46,0,0,1-1.76,3c-.38.68-1.53.75-1.44,1.8-.71,1.65-2,2.88-2.95,4.37-.31.49-1.18.95-.43,1.75-.53.56.57.74.3,1.24-.3.09-.64.17-.8-.18-.7-1.54-1.31-1-2,0C277.37,248.47,277.08,248.56,276.87,248.7Z"/><path d="M187.68,267.42c.74-.32,1.59-.51,1.75-1.5a.31.31,0,0,1,.06-.14c1.46-.17,2.15-1.42,3.18-2.26a12,12,0,0,1-1.94,3.66c-1.27,1.58-2.93,2.95-2.84,5.26,0,.28-.13.41-.33.39-2.16-.2-1.6,1.78-1.77,2.69a3.12,3.12,0,0,1-.88,1.72,4.24,4.24,0,0,1-6.85-.29l.14,0c.45.16,1.08.29,1-.4-.23-1.19.63-1.79,1.08-2.62l.11-.09c1,.75,2,.43,3.07-.94C184.83,271.05,186.26,269.24,187.68,267.42Z"/><path d="M59.81,321.06c0,.26.6.6-.11.74-1,.2-2-.58-3.15.19-.73.48-1.59.28-2.58,1.24-5.38-1.77-10.23-4.71-15.36-7,1.32-.33,2.73.42,4-.32.08.55-.55,1.31.18,1.63a1.84,1.84,0,0,0,2-.11,1.72,1.72,0,0,1,2.08-.18c.55.25,1.2.54,1.3-.49Z"/><path d="M199.27,263.72c.73-.08,1.43-.17,1.5-1.15,0-.22.22-.6.37-.62,1.38-.14,1.68-1.72,2.85-2.13.3-.1.46-.62.89-.35s.19.7.12,1.09c-.19,1-1,1.12-2.07,1.34,1.65.76,1.58,2.16,1.9,3.37a41.74,41.74,0,0,1-5.23,5.81c-1.31-.24-2.84,1-3.95-.6.13-1.2,1.23-1.82,1.71-2.82C198,266.34,198.63,265,199.27,263.72Z"/><path d="M179.08,326.9c1.27-.14,2.14,1.09,3.5.7-.29,1-1,.42-1.38.91.65,1.65,2.11.47,3.13.78.31.1.69-.06.88.37-1.78,1.26-3.78.1-5.66.52a38.21,38.21,0,0,1-7.55,1,52.84,52.84,0,0,1-5.9.09c-1.14-.11-1.82.74-2.87.73a21.85,21.85,0,0,0-5.3.1c-1,.18-1.89.4-2.85.52-.36.05-1,.12-1-.36a.8.8,0,0,1,.87-.86c1.23.2,2.38-.67,3.61-.24.46.16.67-.24,1-.43a5.51,5.51,0,0,1,2.75-.56,6.24,6.24,0,0,0,4.24-1.45h0c.31.69,1,.69,1.56.72.82,0,1.65-.17,2.44-.06,3.28.44,6.37-.7,9.86-.89C179.72,327.84,179,327.64,179.08,326.9Z"/><path d="M97.82,232.53c-.1-1.15-.21-2.31-.31-3.46,1.9-.22,3.26.83,4.34,2.31,2,2.75.69,5.35.08,8a.78.78,0,0,1-.23.39c-2.11,1.88-3.88,4.17-6.59,5.34A2.29,2.29,0,0,1,91.73,243a4.94,4.94,0,0,1,.24-1c.33.38.69.74,1,1.13,1.26,1.56,2,1.62,3.51.27a18.45,18.45,0,0,0,2.13-2.76c.3-.4.42-.82-.18-1.1C101.16,237.06,101,235.66,97.82,232.53Z"/><path d="M503.83,238.91c-.43-.12-1.06.42-1.24-.54-.12-.62-.28-.16-.57.06s-.26-.3-.38-.49a6.47,6.47,0,0,1,.85-3.81c.93-1.61,1.81-3.27,2.71-4.91.44-.8.94-1.6.45-2.56a2.88,2.88,0,0,0,1.21-3.7,1.77,1.77,0,0,1,2.2.91,2.37,2.37,0,0,1-.31,2.57c-.33.44-.64.76-.35,1.33a.48.48,0,0,1-.15.68c-1.06.43-.75,1.35-.68,2.08.13,1.48-.91,2.41-1.41,3.6A18.91,18.91,0,0,1,503.83,238.91Z"/><path d="M495.22,249a13.05,13.05,0,0,0-2.63,4.64,6.22,6.22,0,0,1-1.25,2.37c.4.22-1.25,1,.26.94.31,0,.16.27.07.45a7.83,7.83,0,0,0-.69,3.4,3,3,0,0,0-3.1-.17c-1.07.5-1.5,0-1.8-.87,2.24-3.17,2.88-7.19,5.42-10.19.63-.09,1.25-.24,1.42-1s.39-1.07,1.07-1.09.59.67.78,1.1C494.84,248.8,495.06,248.89,495.22,249Z"/><path d="M96,295.93c.43.56-.32,1.32.31,1.84-1.86,1.93-3.71,3.87-5.59,5.78a2.14,2.14,0,0,1-1.07.54,6.06,6.06,0,0,0-3.14,2.05,14.29,14.29,0,0,1-4,2.65c.31-.87-.43-1.52-.88-1.35s-1.72-.52-1.69.86c0,.69-.44.87-1,.62a1.19,1.19,0,0,0-1.29.12,9.79,9.79,0,0,1-2.17.93c-1.1.53-2.39.48-3.35,1.29l-.3,0c-.14-.47-.63-.43-1-.62a2.82,2.82,0,0,1,.79-.44c3.16-.53,5.86-2.22,8.75-3.41,1.37-.56,2.61-1.47,4.12-1.7a2,2,0,0,0,1.1-.78A4.33,4.33,0,0,1,89,302.6a1.55,1.55,0,0,0,1.18-.56c1.23-1.15,2.18-2.54,3.53-3.64A26.64,26.64,0,0,0,96,295.93Z"/><path d="M266.75,331.48c.26,1-.46,1.26-1.19,1.59-.92.43-2.17.45-2.47,1.76h-.32c-.58-.29-1.27-.46-1.64-1.06-.27-.45-.8-.56-1-.29-.74.88-1.52.32-2.25.17-.5-.1-1,.12-1.5-.11-.89-.4-.72.25-.58.77l-.33.22c-2.26-.69-4.65-.35-7-.83-1.07-.22-.42-.59-.42-1v-.34l.63-.58C254.69,330.69,260.74,332.09,266.75,331.48Z"/><path d="M119.58,247.8c-.35-.24-1,.07-1.1-.6-.17-1,.53-.21.75-.39.57-.48,0-1.05.13-1.58,0-.25,0-.57-.31-.62-.62-.11-.46.55-.72.82-.59.62-.87,1.49-1.59,2a3.49,3.49,0,0,1,.34-1.16c3.08-4.2,3.88-9.46,6.47-13.89a3.23,3.23,0,0,1,1.29-1.44,2.79,2.79,0,0,1-.87,2,1,1,0,0,0,0,1.4c.42.36,1,.05,1.29-.37s.46-.82,1-.67l.09.1c-2,2.65-2.8,5.82-4.13,8.77C121.42,244.1,120.9,246.14,119.58,247.8Z"/><path d="M287.63,332.14v-.45c1.58.3,2.66-1.37,4.24-1.07.6.12,1.19.69,1.82,0,.17-.18.34-.09.4.19.15.77.49.64.81.12a2.3,2.3,0,0,1,2.56-.91,9.67,9.67,0,0,0,2.85-.3c.76-.09,1-.6.51-1.31a8.53,8.53,0,0,1,4.72-.31c.38.06.77.17.74.75,0,.77,0,1.54.06,2.3-2.53,1-5.22.4-7.83.75-.95.13-2-.15-3,0-2.23.42-4.52,0-6.74.52A1.19,1.19,0,0,1,287.63,332.14Z"/><path d="M447.69,263.44c.48-.82.47-1.87,1.5-2.45.46-.25-.16-1.22.51-1.8a17.63,17.63,0,0,0,3.5-4,1.09,1.09,0,0,1,1.19-.5,2.79,2.79,0,0,0,1.87-.47v0c0,.2-.11.43,0,.59.34.79.93,1.65-.71,1.56-.09,0-.16.36-.31.47-1,.76-.62,1.9-.78,2.89-.86,1.26-1.14,2.82-2.13,4-.59-.27-1.17-.42-1.63.21s-.68.42-1.15.17A14.94,14.94,0,0,0,447.69,263.44Z"/><path d="M435.39,295c.54.35,1.46.81.66,1.4-.52.38-.31,2.52-1.88,1.08a.76.76,0,0,0-.54-.12c-.46,1.07-1.68,1.11-2.35,1.74a4.35,4.35,0,0,1-2.27,1c-1.2.27-2.66-.39-3.5,1.05-1.21-.47-2,.57-3,.8a33.61,33.61,0,0,0-4.13,1.45c-.33.13-.57-.13-.76-.38l.94-.92a10.11,10.11,0,0,0,2.91-1.61,27,27,0,0,1,8.37-3.43A26.73,26.73,0,0,0,435.39,295Z"/><path d="M189.51,329.65a52.07,52.07,0,0,1-5.69-2c-.3-.15-.71-.18-.8-.76a15.23,15.23,0,0,1,5.47,0,2.32,2.32,0,0,0,1.33,0l4,0a55,55,0,0,0,6.24,1.22c.47.06,1.35-.18,1.23.67a1.12,1.12,0,0,1-1.59.75c-1.76-.71-3.34-.15-5,.42A29.18,29.18,0,0,1,189.51,329.65Z"/><path d="M497.34,250.55c-.84-.4-.71-1.12-.59-1.83.78-.36,1.78.18,2.46-.6,2.32-1.39,4.7-2.18,7.31-.76a13.9,13.9,0,0,1,2.48,2c-.59,1.35-1.41,2.24-3,1.53-.2-.61-.51-.95-1.24-.7-1.42.49-2.86.94-4.3,1.41C499.5,250.92,498.75,249.7,497.34,250.55Z"/><path d="M276.87,248.7c.21-.14.5-.23.63-.42.65-1,1.26-1.58,2,0,.16.35.5.27.8.18a2.81,2.81,0,0,0,0,.29c.47.53-.2,1.63.92,1.84-.47,1.3-2.19,1-2.77,2.13-1,.4-2.15.74-2.2,2.15-.62.26-1.58.2-1.59,1.12s.9.93,1.56,1.14c.31.1.56.28.25.77-.82-.63-2.11-.25-2.72-1.36a2.1,2.1,0,0,0-2.05-1,1.53,1.53,0,0,0,0-.3c1.14-.73,2.26-1.64,2.25-3a5.82,5.82,0,0,1,.5-2.44A3.72,3.72,0,0,0,276.87,248.7Z"/><path d="M148.77,262.19c.56-1,1.76-1.52,1.86-3,1.72,2.32,2.08,4.41,0,6.45-.36.34-.26.86-.42,1.28-.23.59-.18,1.37-1.36,1.12-.86-.19-.76,1-1.07,1.56-.48.88.12,1.91-.69,2.87a14.26,14.26,0,0,0-2.31,2.87,2.34,2.34,0,0,1,.18-2c1.1-2.13,1.29-4.57,2.11-6.82C147.58,265.06,148.13,263.61,148.77,262.19Z"/><path d="M121.75,253.31a2.37,2.37,0,0,1,1.49-3.3c.59-.27.57-.91,1-1.3.12.36.34.72.72.7,2.26-.14,4.38,1.27,6.68.56.2.51.56.47,1,.35,1.18-.3.42.51.47.85-.43.24-1.42,0-.77,1.14.23.43.55,1.67-.7,1.95-2-.8-4-1.53-6.24-1.1a1.13,1.13,0,0,1-1.4-.87c-.23-.79-.78-.67-1.26-.16S122.06,252.92,121.75,253.31Z"/><path d="M317.66,227.54a34.4,34.4,0,0,1,3.13-1.49,4.57,4.57,0,0,1,5,1.77c.59.93,1.58,1.39,2.28,2.19-1,.68-1.43-.34-2-.78-.95-.77-1.85-1-2.79-.07a2.41,2.41,0,0,1-2,.54c-2,.73-3.14,2.76-5.2,3.4l0,0c-.28-.71,1-1.31.19-2-.63-.54-.28-.8.12-1.19a8.71,8.71,0,0,1,3.88-2.06C319.35,227.25,318.49,227.66,317.66,227.54Z"/><path d="M81,262.2c-.53-1,.1-1.09.85-1.24a2.4,2.4,0,0,0,1.6-3.76c1.2-.19,1.69,1.38,2.87,1.11.17-2.05-1.68-1.36-2.58-1.94,1.19-.89,2.7-.71,4-1.21.53.26,1,.71.8,1.28-.83,1.9.77,1.72,1.64,1.81a7.64,7.64,0,0,1,3.27,1c-.13.68-.86.69-1.16,1.13a3.34,3.34,0,0,1-.56-.5c-.21-.28,0-.88-.62-.88-.42,0-.61.23-.8.58-.34.62.23.79.47,1.13a18.3,18.3,0,0,0-4.9.19,1.51,1.51,0,0,0-2.08.13A5,5,0,0,1,81,262.2Z"/><path d="M58.58,312.83a1.26,1.26,0,0,1,1,.23c-.46.82-1.94,1.11-1.27,2.5-1.55,0-3.09.19-4.65.1-.85-.06-1.93-.32-2.71.49l-2.15-.28c.84-.8,2-.59,3-1,.36-.14,1-.06.86-.61s-.67-.35-1.06-.3c-1.74.22-3.42-.41-5.13-.55-1.31-.11-2.71-.48-4.1-.63H42a3.56,3.56,0,0,1-1.82-1.88c5,1.52,10.19,1.43,15.31,1.89-.25.91.61,1.86.91,1.5C57.05,313.56,58.33,313.93,58.58,312.83Z"/><path d="M447.69,263.44a14.94,14.94,0,0,1,1.83.69c.47.25.81.31,1.15-.17s1-.48,1.63-.21a18.94,18.94,0,0,1-3.83,6.5c-.76.84-1.83.94-2.71,1.49-1.13.71-1.9-.45-2.61-1.19a2,2,0,0,0-1.3-.71,2.92,2.92,0,0,1,1.54-.28c1.11.22,1.2-.87,1.65-1.46.58.61-.08,1.4.5,1.91.4-.16.22-.55.38-.78.65-.93.5-2.32,1.68-2.94a1.09,1.09,0,0,0,.56-1.53l-.18-.41C447.88,264,447.79,263.74,447.69,263.44Z"/><path d="M60.72,228.48c-.4.85-1,1.29-2,.87-.47-.2-.93-.27-.87.52,0,.09-.2.3-.26.29-2.74-.76-1.76,1.92-2.55,2.91-.51.64-.73,1.53-1.58,1.93s-1.08,1.64-2.12,2c-.41.14-.76.32-.8-.12-.1-1.28-.94-.36-1.52-.5,1.12-1.47,2.16-2.87,3.23-4.25.27-.34.53-.78,1.12-.61.11,0,.37-.12.37-.13-.65-2.13,2.08-2,2.34-3.53C57.71,227.62,59.37,226.82,60.72,228.48Z"/><path d="M381.81,271.05c-.88.14-.63.78-.55,1.3s.59.66,1.06.66c.86,0,1.73-.05,2.59-.12a5.89,5.89,0,0,1,3.39,1.18,1,1,0,0,1,.52,1.31,14.68,14.68,0,0,1-5.93.88,6.17,6.17,0,0,1-3.89-1.48c-.1-.51-.21-1-.31-1.52.59-.33.82-1.06,1.88-1.28l-1.26-.28a2.73,2.73,0,0,1,1.85-1.22Z"/><path d="M129.74,237.69c-.94-.34-1.85-.69-2.62.37a1,1,0,0,1-1.11.22,10.38,10.38,0,0,0,2.39-6c-.93.08-1.33.85-2,1.16l-.09-.1a2.37,2.37,0,0,1,1.27-1.59c1.32-.78,1.3-1.86-.06-2.69l.66-.58a7.8,7.8,0,0,0,1.5.19c1.1-.07,1.32.72,1.58,1.49a10.48,10.48,0,0,0,.9,2.61Q130.95,235.23,129.74,237.69Z"/><path d="M258.87,277.24c-.32-.12-.86-.16-.93-.36-.36-1.1-1.38-1.31-2.2-1.8,2.38-.48,3.8-2.35,5.48-3.83.68-.61,1.26-1.32,1.88-2,1.06-.09,1.88.54,2.79.9-.44,1.66-1.92,2.59-2.95,3.74A13,13,0,0,1,258.87,277.24Z"/><path d="M271.67,255.46a2.1,2.1,0,0,1,2.05,1c.61,1.11,1.9.73,2.72,1.36.31-.49.06-.67-.25-.77-.66-.21-1.57-.22-1.56-1.14s1-.86,1.6-1.12c-1,1.34-.09,1.5,1,1.55.26.69.76.65,1.36.5a12.37,12.37,0,0,1,3.91.1,2.43,2.43,0,0,1-2,.66c-1.55-.28-2.66.57-3.87,1.22l-.31,0c-1.81-.85-2.09-.74-2.46.92-1.37.25-1.6,1.66-2.47,2.43-1-.22-.79-1.65-1.83-1.81h0C270.14,258.69,270.16,256.75,271.67,255.46Z"/><path d="M70.91,251.16c.66-.4,1.27,0,1.91.1.46,0,.56.38.4.62-.82,1.25,0,2.41.11,3.61v0A5,5,0,0,0,69.77,258c-.44,1-.26,2.32-1.08,3.26-.31,1.13-1.92,1.6-1.54,3.07a5.82,5.82,0,0,0-2.23.3c1.59-2.31,1.74-5.4,4-7.38.68-.6,0-1.46.37-2.17C69.86,253.81,70.37,252.48,70.91,251.16Z"/><path d="M317.66,227.54c.83.12,1.69-.29,2.65.26a8.71,8.71,0,0,0-3.88,2.06c-.4.39-.75.65-.12,1.19.82.69-.47,1.29-.19,2a2,2,0,0,1-.6-.05c-2.51-1.18-3.89.47-5.17,2.15s-2.93,2.39-4.55,3.61c-.31-.76.07-1.22.22-1.72a4.66,4.66,0,0,1,1.56-1.62c3.1-2.26,5.43-5.44,8.87-7.28C316.85,227.93,317.26,227.74,317.66,227.54Z"/><path d="M437.86,299.28c-.43-2.12-.29-1.93,1.66-2.71,1.48-.59,3.49-.58,4.25-2.51.08-.19.43-.46.58-.42,1.56.47,2.95-1.14,4.53-.38a.58.58,0,0,0,.53-.12c1.16-2.17,1.8-.5,2.56.33h0c-.26.24-.56.47-.92.32-1.24-.52-1.57.3-1.84,1.21C445.16,295.71,441.72,298.05,437.86,299.28Z"/><path d="M300.81,278.77c.09-.74-.53-.61-.92-.75s-.5-.27-.3-.66c.36-.73.34-.74-.67-.77.36-.28.68-.73,1.08-.8,2.25-.41,3.47-2,4.47-3.8.51,1.11,1.34.2,2,.31s.81-.25.4-.8c-.13-.16-.52-.46-.36-.45.53,0,.55-.8,1.13-.55a7.75,7.75,0,0,0,1.17.31C307.7,275,304.55,277.19,300.81,278.77Z"/><path d="M248.06,332.4v.34c-.34,0-1-.15-1-.07-.39,1.17-1.63,1-2.38,1.62a3.35,3.35,0,0,1-1.51-.05,10.62,10.62,0,0,0-4.24-.31c-1.39.28-2.59-1-4-.63-.39-1.16.88-1.35,1.22-2.08,1.57-.68,3.19-.16,4.76-.06a19.86,19.86,0,0,1,3.78.93C245.79,332.39,247,331.88,248.06,332.4Z"/><path d="M116.53,247.49c-.19.16-.57.38-.54.48.55,1.88-.82,3-1.63,4.38-.07-.75-.48-1.06-1.24-1a32.53,32.53,0,0,0-3.94.32c-.76.15-1.57.23-1.86-.8,1.84-.27,2.28-2.27,3.74-3,.35-.19-.22-.43-.38-.63C112.62,247.49,114.6,246.89,116.53,247.49Z"/><path d="M271.67,255.46c-1.51,1.29-1.53,3.23-2.15,4.91a5.17,5.17,0,0,0-2.06-2.55,1.27,1.27,0,0,1-.51-1.94c1.46-2.55,3-5.11,6.25-5.66.05,1.15-.53,1.53-1.78,1.23a2.25,2.25,0,0,1,.52,2.43c-.07.42-.42.8-.24,1.28A1.53,1.53,0,0,1,271.67,255.46Z"/><path d="M269.52,260.37c1,.16.84,1.59,1.83,1.81-.42,1.46-1.64,2.41-2.39,3.67-.9,1.51-2,2.89-3.07,4.32-.91-.36-1.73-1-2.79-.9C265.62,266.58,267.22,263.23,269.52,260.37Z"/><path d="M312.46,327.22c.06.42-.28.83.63,1,1.79.36,3.47-.7,5.21-.11.51.17.74-.51,1.45-.54-.82,1.63-2.33,1.9-3.69,2.25-.68.17-1.39.29-2.09.45h-.27c-1-1.46-2.59-.49-3.55-.27-2.57.58-3.59-.06-3.21-2.79,1.3-.08,2.61-.2,3.91-.24A2.32,2.32,0,0,1,312.46,327.22Z"/><path d="M395.57,229.09c-.87-.27-1.24,0-1.41.94a4.56,4.56,0,0,1-2.3,3.31,2.57,2.57,0,0,1,.36-2c.64-1.4,1.52-2.79.87-4.45-.2-.51-.62-.93-.38-1.57.62-1.64-.33-1.17-1.16-.83a3.49,3.49,0,0,1,2.79-1.88,1.77,1.77,0,0,1,1.93.92c.34.75.57,1.61-.18,2.24a.78.78,0,0,0-.17,1.18A1.46,1.46,0,0,1,395.57,229.09Z"/><path d="M218.63,265.88a5.68,5.68,0,0,1-.36-.78c1.23-.77.56-2.22,1.16-3.2a.49.49,0,0,0-.06-.55c-.5-.8-1.21-1.7.67-1.36.44.08.64-.6.61-.72-.36-1.59.28-3.24-.22-4.8-.16-.5-.69-.83-1.17-.22-.74.92-1.09.36-1.38-.33s-.4-1.28-1.1-1.56c1.32-.83,3.81,0,4.94,1.66a4.66,4.66,0,0,1,.51,3C222.12,260.55,220.33,263.15,218.63,265.88Z"/><path d="M308.82,270.81a7.75,7.75,0,0,1-1.17-.31c-.58-.25-.6.58-1.13.55-.16,0,.23.29.36.45.41.55.32.91-.4.8s-1.5.8-2-.31c1.59-2.88,1.89-2.66,0-4.72a1.59,1.59,0,0,1-.07-2.09c.51-.83,1.11-.49,1.73-.33,2.05.55,2.88,1.83,2.66,4A14.44,14.44,0,0,0,308.82,270.81Z"/><path d="M133.06,251.17c-.05-.34.71-1.15-.47-.85-.44.12-.8.16-1-.35.92-.38,2.12-.14,2.7-1.26.86-.16,1.75-.62,2.46.32,0,.08.05.16.07.24.36,1.17-.73,1.81-1,2.74-.09.32-.47.65-.15,1s.64,0,.92-.21a1.12,1.12,0,0,1,1.33-.07c-1,1.34-2,2.66-3,4-.42.16-1.27.7-1.13,0s-1.74-1.39-.08-2.11c.32-.15.48-.69.71-1C133.45,253,133.59,251.91,133.06,251.17Z"/><path d="M486.62,309.72c2,.56,4,1,5.55,2.47-.85.52-1.05,1.6-2,2.12-1.93,1-3.07.77-3.93-1.21a2.76,2.76,0,0,0-.75-.9C484.55,311.31,484.94,310.49,486.62,309.72Z"/><path d="M284.54,231.84c.21-.4.42-.81.64-1.21h0c2,.47,3.22-.87,4.61-1.84a12,12,0,0,1,5.32-1.5,1.57,1.57,0,0,1,1.74,1.16c.21.71-.28,1.11-.9,1.35-.38-.64-.57-1.28-1.57-.46-.83.67-1.39,1.65-2.41,2.08-.28.12-.56.72-.82.17-.54-1.19-1.26-1-2.22-.57a13.81,13.81,0,0,1-2.51.53Z"/><path d="M280.27,248.71a2.81,2.81,0,0,1,0-.29c.27-.5-.83-.68-.3-1.24l3.36-4.31a10,10,0,0,0,1.12-1.24c.87-1.31,1.33-2.85,2.68-3.87,1.1-.83,2-1.86,1.74-3.46h0a1.09,1.09,0,0,0,1.48-.39,3,3,0,0,1,1.58-1.15c-.39,1.33-1.45,2.19-2.22,3.25-1.15,1.58-2.7,2.93-3,5,0,.15-.06.39-.15.42-1.92.65-2,2.93-3.58,4a4.82,4.82,0,0,0-1.84,3.61Z"/><path d="M471.57,274.51a16.52,16.52,0,0,0,6.81-1.4c.58-.29,1.4-.07,2.08-.23,1-.23,1.86-.6,2.79-.91-2.49,2.23-4.83,4.72-8.6,4.45-.5,0-1,.09-1.51.11C471.39,276.58,471.11,276.22,471.57,274.51Z"/><path d="M321.36,229.7a2.41,2.41,0,0,0,2-.54c.94-1,1.84-.7,2.79.07.55.44,1,1.46,2,.78,1.06.87.38,1.89,0,2.62A2.55,2.55,0,0,1,325.7,234a2.38,2.38,0,0,1-2.14-1.91A2.9,2.9,0,0,0,321.36,229.7Z"/><path d="M341.61,272c-.69,0-.91.49-1,1.08-.08.43-.09,1-.8.74,0-.2,0-.41,0-.61a25,25,0,0,1,.86-4.2c.16-.39-.06-.67-.22-1,.32-.41.57-.88,1.14-1,1.95.19,3.43-1.27,5.26-1.51h0a4.9,4.9,0,0,0,1.75.47,1,1,0,0,1,.91,1.07.7.7,0,0,1-.53.68c-.68.22-.73-.24-.84-.72,0-.13-.39-.33-.46-.29-1.87,1.2-4.15,1.69-5.82,3.22a1.32,1.32,0,0,0-.22,2Z"/><path d="M180,272c-.39-1.13,0-2.31-.23-3.45-.1-.59.35-.8.65-1.11.61-.61,1.31-1.08.41-2.12-.46-.51.48-1.11.65-1.76a2.27,2.27,0,0,1,1.19-1.57.84.84,0,0,0,.35-1.46.85.85,0,0,1,.07-1.35c1.54-1.17.82-2.63.58-4,1.76.65,2.31,1.65,1.39,3.38-1.28,2.4-1.2,5.3-2.83,7.5C180.88,267.85,180.59,270,180,272Z"/><path d="M300.5,328.15c-1,.57-2.34.33-3.33,1.28a1.76,1.76,0,0,1-2.12-.29,1.7,1.7,0,0,0-2.66.17c-.84,1-1.63.68-2.42.39a1.08,1.08,0,0,0-1.5.42c-.27.37-.51,1.06-1.13.79s-.54-.88-.47-1.47a2,2,0,0,0-.18-.72c2.72-.84,5.56-.52,8.33-.86,2-.25,4.06-.23,6.09-.34Z"/><path d="M98.43,239.49c.6.28.48.7.18,1.1a18.45,18.45,0,0,1-2.13,2.76c-1.53,1.35-2.25,1.29-3.51-.27-.31-.39-.67-.75-1-1.13a2.53,2.53,0,0,1,3.63-1.64C96.65,240.68,97.43,239.6,98.43,239.49Z"/><path d="M293.73,262.8c0-1.37.51-2.77-.73-4-1.46-1.45-2.19-1.41-3,.45a1.7,1.7,0,0,1-.84.83c.27-1-.08-2,.08-3,.12-.82-1.2-.79-1.94-1,.39-.52.83-1,1.51-.51.49.34.5.06.84-.24a2,2,0,0,1,1.82,0c.8.47.43-.43.72-.45,1.66,2,2.88,4.06,2.31,6.79C294.4,262.15,294.35,262.64,293.73,262.8Z"/><path d="M77.88,279.75a2.57,2.57,0,0,0,.27-.52c-1.19-.94-.63-2.32-.89-3.49l0-.4a3.06,3.06,0,0,0,3,1.59c-.21.47-1.48.17-.93,1.17.32.57,1,.95,1.52.38a3.35,3.35,0,0,1,1.89-1.08.71.71,0,0,0,.52-.69c-.07-.49-.55-.32-.86-.41a2.41,2.41,0,0,1,1.24-.6c.56.73,1.46.68,2.21,1a7.86,7.86,0,0,1-7.3,3.55A1,1,0,0,1,77.88,279.75Z"/><path d="M276.59,258.86c1.21-.65,2.32-1.5,3.87-1.22a2.43,2.43,0,0,0,2-.66,12.37,12.37,0,0,0-3.91-.1c-.6.15-1.1.19-1.36-.5,2.37-.17,4.31-1.54,6.45-2.34.24-.09.36-.45.54-.69.48.09.64.46.38.78-.89,1.1-1.06,2.07.32,2.9-2.19.63-4.12,2-6.48,2.17C277.71,259.26,277.13,259.37,276.59,258.86Z"/><path d="M249.88,260.94a1.15,1.15,0,0,1,.56,1.63c.92-.9,2-.29,2.92-.65.06.79-.5,1.44-.86,1.39-2.31-.35-.76,1-.77,1.64-1.53,1.66-3.23,3.24-2.76,5.84-1.21-.26-.59-2.08-1.92-2.24,0-.14,0-.33.07-.41.47-.5.8.26,1.47.09-.81-1.83.58-3.1,1.53-4.77-1.09.18-2.15.57-1.74-.95Z"/><path d="M356.31,324.72a1.47,1.47,0,0,1,.8-1,9.27,9.27,0,0,1,5.4-1.24c2.12.15,3.73-1.06,5.58-1.6a3.32,3.32,0,0,1,3,.16c.71.54,1.24-.55,1.79,0-.79,1.12-2.07,1-3.19,1.12a9.86,9.86,0,0,0-4.11.91.58.58,0,0,1-.28.11c-2.27-.36-4.31.75-6.49,1A21.81,21.81,0,0,0,356.31,324.72Z"/><path d="M59.5,274.48l-.32,0c-1.47-.44-1.3-2-1.85-3a14.56,14.56,0,0,1-1.37-4.1c-.12-.57.79-1.07.81-1.87,0-.63.14-.62-.49-1.11a.35.35,0,0,1,0-.53,7.62,7.62,0,0,1,.77-.73,3,3,0,0,1,.84,2.39c.26,2.49,1.27,4.82,1.43,7.32.07,1.17.62.72,1.17.46C60.3,273.81,59.84,274.1,59.5,274.48Z"/><path d="M417,282.73c-1.21.78-2.73,0-3.95.82,0,0-.24-.06-.26-.12-.35-1.48-1.85-.69-2.63-1.33a.52.52,0,0,0-.79.2.89.89,0,0,1-1.51.26c-.4-.31-.69-.37-.75.34s-.67.54-1.11.6a3.3,3.3,0,0,0-1.19.17,3,3,0,0,1-3.76-.91c2.63-1.35,5.53-1,8.31-1.14C412,281.52,414.48,282.37,417,282.73Z"/><path d="M291.91,232.76a3,3,0,0,0-1.58,1.15,1.09,1.09,0,0,1-1.48.39,1.12,1.12,0,0,1,.2-.86c.27-.58.25-1.07-.59-.88a2.53,2.53,0,0,1-2.08-.73l0-.28a13.81,13.81,0,0,0,2.51-.53c1-.4,1.68-.62,2.22.57.26.55.54-.05.82-.17,1-.43,1.58-1.41,2.41-2.08,1-.82,1.19-.18,1.57.46a3,3,0,0,1-2.44,1.92C292.75,231.79,292.44,232.42,291.91,232.76Z"/><path d="M15.65,261.88c.46-.63,1-.53,1.59-.19.4.23.8.43,1.18.68a3.34,3.34,0,0,0,2.64.16c1.28-.28.24-1.52.72-2.17,1.22,1.37,1.43,3.33.46,4.24s-3.83.9-4.87-.07c-.24-.23-.43-.56-.3-.81C18,262,16.53,262.17,15.65,261.88Z"/><path d="M449.22,295c.27-.91.6-1.73,1.84-1.21.36.15.66-.08.92-.32a12.14,12.14,0,0,1,1.88-.33,30.26,30.26,0,0,0,4.28-1.34,1.93,1.93,0,0,1,1.33-.17c1.49.57,2.86,0,4.19-.52a1.24,1.24,0,0,1,1.5.2c-1.35.15-2.27,1.31-3.59,1.54s-2.7.2-4.05.44C454.73,293.8,452,294.37,449.22,295Z"/><path d="M418.59,302.09l-.94.92a42.2,42.2,0,0,1-4.61,2.43c-2.75.69-5.27,2-7.92,3a2.27,2.27,0,0,1-1.89.1c3.07-2,6.77-2.68,10-4.51A12.9,12.9,0,0,1,418.59,302.09Z"/><path d="M338.52,257.92c-1.21-.13-2.52,0-2.78-1.75-.08-.53-.68-.68-1.2-.71h0a6.6,6.6,0,0,0-3.08-4c.28-.68,1.06-.34,1.25-.89a2.8,2.8,0,0,1,2.14,2.8c0,1.2.65,1.54,1.65.73.78-.63.85-.25,1.08.39C338,255.59,337.78,256.89,338.52,257.92Z"/><path d="M67.15,264.35c-.38-1.47,1.23-1.94,1.54-3.07.61-.28,1.21-.7,1.93-.31.33,2.18-1.1,3.74-1.93,5.51-.14-.57-.36-.7-.78-.17-.21.26-.28.7-.7.71-1.38,0-1.38,0-1.58,1.33H65c.32-1.48.83-2.76,2.42-3.4C68.05,264.68,67.45,264.46,67.15,264.35Z"/><path d="M293.15,252.4c.29-1,1.24-1.53,1.7-2.27,1.18-1.93,3-3,4.6-4.38,1.05-.88,1.39-.51,2,.21a12.09,12.09,0,0,1-6.15,4.82C294.41,251.07,294.1,252.16,293.15,252.4Z"/><path d="M195.65,270.48c1.11,1.57,2.64.36,3.95.6-1.94,1.35-2.66,3.45-3.37,5.54-.39-1.35-1.71-1.52-2.7-2.11C194,273.06,195.29,272,195.65,270.48Z"/><path d="M110.68,247.21c.16.2.73.44.38.63-1.46.76-1.9,2.76-3.74,3-.33-.31-.63-.7-1.12-.7-.7,0-1-.35-1-1s.34-1.09.9-1.38A7.19,7.19,0,0,1,110.68,247.21Z"/><path d="M40.19,310.92A3.56,3.56,0,0,0,42,312.8c-.61.42-1,0-1.53-.31l-.92-.3a3.09,3.09,0,0,0-.63-.41,12.93,12.93,0,0,0-2.72-.89c-.37,0-.91.11-.94-.67,0-.47-.63-.22-.87-.07-.83.52-.19,1.14,0,1.72l-.07.05c-.76,0-.71-1.51-1.78-1a.87.87,0,0,1-.28-.05c-.12-1-1-2.34.9-2.71A59.84,59.84,0,0,0,40.19,310.92Z"/><path d="M32.51,311c1.07-.54,1,1,1.78,1a5.6,5.6,0,0,0,4.36,2.74,7.24,7.24,0,0,1,4,1.14l0,.08c-1.28.74-2.69,0-4,.32A24.7,24.7,0,0,1,35.53,315c-1.13-.59-2.35-1.23-2.26-2.85C33.3,311.63,32.89,311.28,32.51,311Z"/><path d="M128.17,274.16l-1.24,2.14a1.56,1.56,0,0,1-1.48-.28c-.87-1.43-.1-2.57.81-3.51a33.43,33.43,0,0,0,3.17-3.57l.89.93h0C129.09,271,127.51,272,128.17,274.16Z"/><path d="M300.5,328.15l.61-.63c1.95.09,3.85-.84,5.83-.28-.38,2.73.64,3.37,3.21,2.79,1-.22,2.51-1.19,3.55.27-1.34,1.4-3.1.4-4.64.74a14.35,14.35,0,0,1-2.73.14c0-.77-.1-1.54-.06-2.31,0-.58-.36-.69-.74-.75a8.53,8.53,0,0,0-4.72.31Z"/><path d="M53.1,245.36c-.86-1.24-1.57-2.5-.53-4,.18-.26.09-.46-.07-.69a2.74,2.74,0,0,1,.21-3.28,18.93,18.93,0,0,1,3.08-3.73c-.13,1.15-1,1.95-1.45,3-1,2.37-.75,4.84-.92,7.27A2.33,2.33,0,0,1,53.1,245.36Z"/><path d="M127.52,229.06c1.36.83,1.38,1.91.06,2.69a2.37,2.37,0,0,0-1.27,1.59c-.59-.15-.77.31-1,.67s-.87.73-1.29.37a1,1,0,0,1,0-1.4,2.79,2.79,0,0,0,.87-2C125.65,230.22,126.33,229.27,127.52,229.06Z"/><path d="M99.4,259.46a5.13,5.13,0,0,0-2,.91c-.31.31-.42,1.11-1.1.75s-.28-.91-.3-1.39l0-.26c.87-.3,1.08-1.14,1.51-1.82.61-.95,1.1-2.27,2.64-1.69.69.27.42,2-.43,3.16C99.61,259.24,99.5,259.35,99.4,259.46Z"/><path d="M104.87,333.33c-.45-.85-.31-1.17.75-1a7.29,7.29,0,0,0,3.68-.28c1.21-.41,2.59,0,3.71-.89.29-.21.69.14.87.45a3.19,3.19,0,0,0,1.42,1.1A48,48,0,0,1,104.87,333.33Z"/><path d="M67.15,264.35c.3.11.9.33.28.59-1.59.64-2.1,1.92-2.42,3.4a2.27,2.27,0,0,1,.3,2.15l-1.21-.31c-.48-.18-.44-.88-1-1,.3-1.64.51-3.32,1.83-4.56A5.82,5.82,0,0,1,67.15,264.35Z"/><path d="M193.53,274.51c1,.59,2.31.76,2.7,2.11-.46.67-.9,1.35-1.37,2-.26.35-.45.85-1.05.68s-1.07-.46-1.14-1.1A4.31,4.31,0,0,1,193.53,274.51Z"/><path d="M70.62,261c-.72-.39-1.32,0-1.93.31.82-.94.64-2.22,1.08-3.26a5,5,0,0,1,3.55-2.55,2.9,2.9,0,0,1-1.15,2.93A4.87,4.87,0,0,0,70.62,261Z"/><path d="M276,334.23c.54-1,1.44-1.08,2.47-1.11,1.66,0,3.43.22,4.83-1.06.74-.67.71.83,1.35.45s-.77-1.09.13-1.3a2.54,2.54,0,0,1,2.59.94c-.43.73-1.2.74-1.88.84C282.31,333.42,279.14,333.82,276,334.23Z"/><path d="M345.9,261a13.25,13.25,0,0,1,5.23-2.82c1.39-.43,2.85-.71,3.91-1.87s2.51-1.47,3.84-2.06a.72.72,0,0,1,.82.25,19.18,19.18,0,0,0-5.11,3,7.74,7.74,0,0,1-2.78,1.17c-2,.75-3.8,2.09-5.93,2.6C345.89,261.2,345.89,261.11,345.9,261Z"/><path d="M70.82,310.62c.32.19.81.15,1,.62-1.51.39-3,.73-4.54,1.17a27,27,0,0,1-6.19,1l.28-.6A88.27,88.27,0,0,1,70.82,310.62Z"/><path d="M176.34,274.14a1.5,1.5,0,0,1,.46-2.48c.41-.27,1.59-.26.89-1.41-.19-.31.38-.54.7-.64.47-.14.6.25.73.59.24.61-.2,1.44.61,1.86a5,5,0,0,0,.61,1.76l-.11.09c-1,.37-2,.88-2.26-.92-.1-.7-.8-.88-1.22,0A2.62,2.62,0,0,0,176.34,274.14Z"/><path d="M61.32,312.8c-.09.2-.18.4-.28.6,1.39,1.73,1.34,1.84-.82,2.24a6.7,6.7,0,0,0-1.36.58h0a.9.9,0,0,0-.58-.66c-.67-1.39.81-1.68,1.27-2.5C60.13,313,60.68,312.52,61.32,312.8Z"/><path d="M59.5,274.48c.34-.38.8-.67,1-1.19.18-.31.37-.62.56-.92,0,.34,0,.91.14,1,1.85,1,.57,2.09.08,3.09-.29.6-.65,1.07.17,1.49.23.12.3.31.08.47s-.48.24-.53.18c-.47-.5-1.35-1.35-1.24-1.52C60.42,276.08,59.5,275.34,59.5,274.48Z"/><path d="M304.77,238.57c1.06.62.36,1.92,1.1,2.82.4.48-.81,1.09-1.47.79a3.3,3.3,0,0,0-1.76-.23c-.17-.69.72-1.2.28-1.87A2.67,2.67,0,0,1,304.77,238.57Z"/><path d="M495.21,263.43c0-.25.16-.61.05-.72-1.29-1.25.1-2.31.24-3.45,0-.3.57-.64.78-.15.56,1.24,1.64,2.27,1.66,3.75-.51-.48-1-.66-1.53,0A1.4,1.4,0,0,1,495.21,263.43Z"/><path d="M286.93,266c1.09.95.21,2.05-.18,2.7a2.64,2.64,0,0,0-.31,2.26c.31,1.19.59,2.37.88,3.56a5.08,5.08,0,0,1-1.59-5.52C286,267.94,285.35,266.46,286.93,266Z"/><path d="M244.69,334.29c.75-.59,2-.45,2.38-1.62,0-.08.65,0,1,.07,0,.37-.65.74.42,1,2.31.48,4.7.14,7,.83C251.86,334.47,248.26,334.87,244.69,334.29Z"/><path d="M345.9,261c0,.09,0,.18,0,.27a17,17,0,0,1-8,1.82l-1-.65C339.89,261.51,343,262.06,345.9,261Z"/><path d="M227.2,275.68a16.27,16.27,0,0,0-1.68.66c-.79.4-1.23.2-1.39-.66a3.53,3.53,0,0,1,1.2-1.71c.44-.44,1-1.08,1.66-.67s.51,1.14.37,1.79C227.31,275.29,227.25,275.48,227.2,275.68Z"/><path d="M132.16,232.77a10.48,10.48,0,0,1-.9-2.61c-.26-.77-.48-1.56-1.58-1.49a7.8,7.8,0,0,1-1.5-.19c.81-.27,1.61-.57,2.43-.78a1.23,1.23,0,0,1,1.75,1.06A8,8,0,0,1,132.16,232.77Z"/><path d="M255.77,334.31c-.14-.52-.31-1.17.58-.77.53.23,1,0,1.5.11.73.15,1.51.71,2.25-.17.23-.27.76-.16,1,.29.37.6,1.06.77,1.64,1.06A20.88,20.88,0,0,1,255.77,334.31Z"/><path d="M271.7,255.16c-.18-.48.17-.86.24-1.28a2.25,2.25,0,0,0-.52-2.43c1.25.3,1.83-.08,1.78-1.23l1.25-.54a5.82,5.82,0,0,0-.5,2.44C274,253.52,272.84,254.43,271.7,255.16Z"/><path d="M64.1,270.18l1.21.31a1.46,1.46,0,0,0,.6,1.2c.42,1.5-.71,2.5-1.2,3.7-.46-.77-1.24-1.34-.42-2.5C64.76,272.22,63.79,271.13,64.1,270.18Z"/><path d="M454.43,259.75c.16-1-.26-2.13.78-2.89.15-.11.22-.47.31-.47,1.64.09,1.05-.77.71-1.56-.07-.16,0-.39,0-.59a2.13,2.13,0,0,1,1.85.62C457.2,256.73,455.64,258.11,454.43,259.75Z"/><path d="M96,259.47l0,.26c-.75.15-1.18.95-2.08,1,0-.26-.08-.49,0-.63,1-1.59-.25-2.62-.93-3.79A3.58,3.58,0,0,1,96,259.47Z"/><path d="M92.27,280a41.09,41.09,0,0,1,5.22-1.42c.64-.12,1.27-.5,1.87.08C97.13,279.84,94.86,280.79,92.27,280Z"/><path d="M65.63,268.35c.2-1.3.2-1.29,1.58-1.33.42,0,.49-.45.7-.71.42-.53.64-.4.78.17L67.49,269c-.06-.23,0-.58-.32-.61-.72-.05-.09.9-.71,1Z"/><path d="M125.45,276a1.56,1.56,0,0,0,1.48.28c-.53,1.25-1.19,2.36-2.77,2.4-.23-.35-.46-.69-.26-1.14C124.41,277,124.6,276.2,125.45,276Z"/><path d="M289.17,260.06c.28,1.08-.13,2.15-.16,3.22s-1.33.67-2,1.1C287.55,262.84,288,261.25,289.17,260.06Z"/><path d="M287.34,251.15c-1.63.28-3.2-.27-4.79-.44-.76-.08,0-.72-.14-1.08C284.08,250.06,285.94,249.85,287.34,251.15Z"/><path d="M340.41,268.07c.16.3.38.58.22,1a25,25,0,0,0-.86,4.2c-1.49-1.11-.5-2.44-.28-3.67A2.58,2.58,0,0,1,340.41,268.07Z"/><path d="M128.17,274.16c-.66-2.12.92-3.12,2.15-4.29C130.36,271.68,129.32,273,128.17,274.16Z"/><path d="M164.69,260.68c.56-.24,1.12-.47,1.67-.73.3-.13.58-.25.83.05a1,1,0,0,1,.24.85c-.12.39-.61.68-.81.55-.87-.58-1.76,1.6-2.53-.06Z"/><path d="M65.63,268.35l.83,1c.62-.12,0-1.07.71-1,.28,0,.26.38.32.61,0,1.22-1.36,1.62-1.58,2.7a1.46,1.46,0,0,1-.6-1.2,2.27,2.27,0,0,0-.3-2.15Z"/><path d="M398.32,282.76a3.07,3.07,0,0,1-2.22,1.39c-1.11.32-1.28-.61-1.46-1.41C395.86,282.42,397.09,282.93,398.32,282.76Z"/><path d="M214.38,266.21l1.62.69c-.27.51.75,1.11-.06,1.54a1.2,1.2,0,0,1-1.91-.72C214.15,267.22,214.26,266.71,214.38,266.21Z"/><path d="M58.58,312.83c-.25,1.1-1.53.73-2.17,1.48-.3.36-1.16-.59-.91-1.5A5,5,0,0,1,58.58,312.83Z"/><path d="M391.88,282.74c-.07.4.64,1.05-.25,1.17s-2,1-2.51-.55C390.05,283.19,390.76,282.06,391.88,282.74Z"/><path d="M289.78,228.79c-1.39,1-2.64,2.31-4.61,1.84A11.22,11.22,0,0,1,289.78,228.79Z"/><path d="M291.61,279.07a15.18,15.18,0,0,1,4.92,1.21C294.74,280.5,293,280.63,291.61,279.07Z"/><path d="M33.13,308.19c-1.89.37-1,1.66-.9,2.71-1.61-.13-1.13-1.43-1-2.19C31.42,307.59,32.32,307.76,33.13,308.19Z"/><path d="M489,263.79a2.75,2.75,0,0,1,.55-.48c.63-.28,1.76-2.15,1.59.45,0,.08.22.17.34.26A2.31,2.31,0,0,1,489,263.79Z"/><path d="M273.82,259.75c.37-1.66.65-1.77,2.46-.92C275.71,259.81,274.76,259.76,273.82,259.75Z"/><path d="M346.81,265.57c-1.83.24-3.31,1.7-5.26,1.51C343.22,266.29,344.75,265,346.81,265.57Z"/><path d="M468.51,273.57a5.36,5.36,0,0,1,2.45.62,2.1,2.1,0,0,0-1.28.28c-.32.24.17,1.31-.79.8C468.17,274.88,468.24,274.23,468.51,273.57Z"/><path d="M72.34,249.26a6.87,6.87,0,0,0,2.18.36c-.8,1-1.75.84-2.75.33A1,1,0,0,1,72.34,249.26Z"/><path d="M316.46,273.24c1.23.28,2.42.61,3.05,1.86C318.25,274.88,317,274.6,316.46,273.24Z"/><path d="M54.26,280c.26,1.13-.28,2.49.94,3.36-.48.65-.86.16-1-.19A2.69,2.69,0,0,1,54.26,280Z"/><path d="M300.51,242c.31.2.91,0,.94.57s-.46.64-.77.87c-.7.55-.67-.52-1.13-.54Z"/><path d="M248.06,332.4c-1.09-.52-2.27,0-3.38-.31,1.27-1.12,2.66-.39,4-.27Z"/><path d="M391.24,225.08a2.65,2.65,0,0,1-1.77,2.49A4.2,4.2,0,0,1,391.24,225.08Z"/><path d="M130.32,269.87l-.89-.93c0-.1,0-.2,0-.3.72.05,1.29-.69,2.05-.38l.06.08Z"/><path d="M379.31,271.7l1.26.28c-1.06.22-1.29.95-1.88,1.28C378.69,272.66,377.72,271.68,379.31,271.7Z"/><path d="M448,264.35l.18.41a1.09,1.09,0,0,1-.56,1.53c-1.18.62-1,2-1.68,2.94-.16.23,0,.62-.38.78-.58-.51.08-1.3-.5-1.91-.45.59-.54,1.68-1.65,1.46-.92-.79-.66-1.52.08-2.28a4.86,4.86,0,0,0,1.62-2.27.87.87,0,0,1,1.26-.48C447,265.07,447.45,264.45,448,264.35Z"/><path d="M112.23,329.67a7.37,7.37,0,0,1,2.77,0C114.07,331.2,113.15,330.15,112.23,329.67Z"/><path d="M152.09,319.25l-4-.65C149.82,317.37,151.31,317.62,152.09,319.25Z"/><path d="M176.34,274.14a2.62,2.62,0,0,1,.41-1.11c.42-.92,1.12-.74,1.22,0,.26,1.8,1.24,1.29,2.26.92-.45.83-1.31,1.43-1.08,2.62.13.69-.5.56-1,.4C177.3,276.18,177.24,274.89,176.34,274.14Z"/><path d="M119.33,250.6c-1,1.56-1.38,3.18-2.73,4.33C116.74,252.85,117.87,250.89,119.33,250.6Z"/><path d="M280.59,252.66l-2.17,0c.58-1.17,2.3-.83,2.77-2.13C282.15,251.59,281.12,252.05,280.59,252.66Z"/><path d="M334.54,255.46c.38.72,1.09,1.47.16,2.24a2.31,2.31,0,0,1-3.28-.18c-1.17-1.18-1.15-2.13.07-3.3a1.55,1.55,0,0,0,.37-.44c.11-.23-.18-.68.34-.68a.86.86,0,0,1,.77.65c.32.76.64,1.51,1.57,1.71Z"/><path d="M125.15,268.39l2.42-3.43c.84-.47,1.05-1.4,1.54-2.13.38.21.62-.26,1-.21a5.71,5.71,0,0,1-.84,2.54c.68.2,1.18-.4,1.92,0-.78.65-.86,1.78-1.91,2.19-.36.15-1.06-.49-1.08.29a.93.93,0,0,0,1.23,1c0,.1,0,.2,0,.3a33.43,33.43,0,0,1-3.17,3.57c-.91.94-1.68,2.08-.81,3.51-.85.18-1,1-1.55,1.54-.63-.19-1.38-.29-.91-1.28.21-.45-.3-.58-.42-.89-.25-.62-.89-1.28.21-1.74.41-.18.34-.57.31-.93,0-.7.24-1.28.92-1.37,1-.13,1.2-1.05,1.75-1.58S125,269.06,125.15,268.39Z"/><path d="M166.51,328.74a4,4,0,0,1,3.92,0,1.44,1.44,0,0,0,1,0c1.85-.88,3.85-.85,5.82-1,.77-.05,1.3-.26,1.17-1.17l.62.27c-.07.74.64.94,1.29,1.61-3.49.19-6.58,1.33-9.86.89-.79-.11-1.62.1-2.44.06C167.49,329.43,166.82,329.43,166.51,328.74Z"/><path d="M500.43,251.56c-.59.74-1,1.69-2.16,1.74-.31-.91-.18-2-.93-2.75C498.75,249.7,499.5,250.92,500.43,251.56Z"/><path d="M129.45,268.64a.93.93,0,0,1-1.23-1c0-.78.72-.14,1.08-.29,1-.41,1.13-1.54,1.91-2.19-.74-.44-1.24.16-1.92,0a5.71,5.71,0,0,0,.84-2.54c-.4-.05-.64.42-1,.21,1.28-1.18,1.27-3.09,2.42-4.3.62-.66,1.39-2,2.46-.28.24.39,1,.77.94-.34.54-.07,1.1-.43,1.62-.08s1.53.77,1.3,1.08c-.66.88.07,2.37-1.15,2.78-1.66.56-2.2,2.17-3.35,3.19a7,7,0,0,0-1.85,3.38C130.74,268,130.17,268.69,129.45,268.64Z"/><path d="M134.93,257.91c0,1.11-.7.73-.94.34-1.07-1.76-1.84-.38-2.46.28-1.15,1.21-1.14,3.12-2.42,4.3-.49.73-.7,1.66-1.54,2.13.68-3.81,2.35-7.26,4-10.7,1.25-.28.93-1.52.7-1.95-.65-1.18.34-.9.77-1.14.53.74.39,1.87,1.37,2.35-.23.36-.39.9-.71,1-1.66.72.24,1.34.08,2.11s.71.17,1.13,0Z"/><path d="M91.39,264.7c-1-.79-.7-1.89-.71-2.92,0-.35,0-.7.07-1-.24-.34-.81-.51-.47-1.13.19-.35.38-.58.8-.58.64,0,.41.6.62.88a3.34,3.34,0,0,0,.56.5l.38.55a6.39,6.39,0,0,1-1.29,3.64Z"/><path d="M91.35,264.59A6.39,6.39,0,0,0,92.64,261c.78.24,1.68.44.33,1.25-.37.23-.19.64-.22,1C92.67,264,92.29,264.59,91.35,264.59Z"/><path d="M85.85,260.92A22.93,22.93,0,0,0,79,267.07c-1.59,2.37-2.89,5.16-1.73,8.27l0,.4c-3.07-1.82-3.21-2.57-1.11-6,0,0,.09-.09.08-.13-.6-2.74,2.07-3.66,3.13-5.47.39-.67,1.41-1,1.61-2a5,5,0,0,0,2.8-1.15A1.51,1.51,0,0,1,85.85,260.92Z"/><path d="M288.86,234.3c.3,1.6-.64,2.63-1.74,3.46-1.35,1-1.81,2.56-2.68,3.87a10,10,0,0,1-1.12,1.24c-.13-.6.77-1.2,0-1.81-.09-1.05,1.06-1.12,1.44-1.8a13.46,13.46,0,0,0,1.76-3A3.32,3.32,0,0,1,288.86,234.3Z"/><path d="M286.41,231.55l0,.28c-.94.9-1.88,1.81-2.83,2.7-.4.38-.71.68-1.42.35s-1.32.18-1.86.65l-.3-.61c1.54-1,2.72-2.53,4.57-3.08Z"/><path d="M283.34,241.06c.75.61-.15,1.21,0,1.81L280,247.18c-.75-.8.12-1.26.43-1.75C281.32,243.94,282.63,242.71,283.34,241.06Z"/><path d="M280,234.92l.3.61c-.8.93-1.41,2.09-2.85,2.66C277.43,236.25,279.07,235.88,280,234.92Z"/><path d="M48.46,315.9c-.2.24-.48.46-.28.83-.1,1-.75.74-1.3.49a1.72,1.72,0,0,0-2.08.18,1.84,1.84,0,0,1-2,.11c-.73-.32-.1-1.08-.18-1.63l0-.08a2.72,2.72,0,0,1,2.33,0C46.14,316.17,47.32,315.42,48.46,315.9Z"/><path d="M73.28,313.07l-.28,0c-1.82-.66-3.32.69-5,.81-.19,0-.35.44-.53.68a38.81,38.81,0,0,1-7.12,1.69c-.49.07-1,.32-1.47-.07a6.7,6.7,0,0,1,1.36-.58c2.16-.4,2.21-.51.82-2.24a27,27,0,0,0,6.19-1c1.5-.44,3-.78,4.54-1.17l.3,0c-.12.4-.07.72.44.67C73.49,311.84,73.33,312.48,73.28,313.07Z"/><path d="M73.28,313.07c0-.59.21-1.23-.77-1.14-.51.05-.56-.27-.44-.67,1-.81,2.25-.76,3.35-1.29a9.79,9.79,0,0,0,2.17-.93,1.19,1.19,0,0,1,1.29-.12c.6.25,1.05.07,1-.62,0-1.38,1.15-.66,1.69-.86s1.19.48.88,1.35c-.23.1-.53.13-.68.3C79.54,311.65,76.29,312.12,73.28,313.07Z"/><path d="M48.46,315.9c-1.14-.48-2.32.27-3.47-.1a2.72,2.72,0,0,0-2.33,0,7.24,7.24,0,0,0-4-1.14,5.6,5.6,0,0,1-4.36-2.74l.07-.05a5.52,5.52,0,0,1,3.78,1.06c.69.57,1.46.49,1.42-.74l.92.3c-.77,1.05.11,1.55.79,1.78.91.3,2.34.8,2.8.14.56-.81-.94-.8-1.4-1.31a3.37,3.37,0,0,0-.35-.29c1.39.15,2.79.52,4.1.63,1.71.14,3.39.77,5.13.55.39-.05,1-.15,1.06.3s-.5.47-.86.61c-1,.38-2.15.17-3,1Z"/><path d="M58.85,316.22c-2.66.74-5.3,0-7.94-.07.78-.81,1.86-.55,2.71-.49,1.56.09,3.1-.1,4.65-.1A.9.9,0,0,1,58.85,316.22Z"/><path d="M42.32,312.81a3.37,3.37,0,0,1,.35.29c.46.51,2,.5,1.4,1.31-.46.66-1.89.16-2.8-.14-.68-.23-1.56-.73-.79-1.78.48.28.92.73,1.53.31Z"/><path d="M80.34,276.93a5.57,5.57,0,0,0,2.14-.63c.31.09.79-.08.86.41a.71.71,0,0,1-.52.69,3.35,3.35,0,0,0-1.89,1.08c-.47.57-1.2.19-1.52-.38C78.86,277.1,80.13,277.4,80.34,276.93Z"/><path d="M39.56,312.19c0,1.23-.73,1.31-1.42.74a5.52,5.52,0,0,0-3.78-1.06c-.15-.58-.79-1.2,0-1.72.24-.15.84-.4.87.07,0,.78.57.63.94.67a12.93,12.93,0,0,1,2.72.89A3.09,3.09,0,0,1,39.56,312.19Z"/><path d="M67.45,314.6c.18-.24.34-.66.53-.68,1.7-.12,3.2-1.47,5-.81A28.79,28.79,0,0,1,67.45,314.6Z"/></g></svg>