<svg id="Layer_1" data-name="Layer 1" xmlns="http://www.w3.org/2000/svg" viewBox="0 0 415.98 347.01"><defs><style>.cls-1{fill:#000000;}</style></defs><title>83_FUTURES_LOGO</title><path class="cls-1" d="M0,345.83V296a15.61,15.61,0,0,1,15.53-15.69H53.2v15.5h-33a3.15,3.15,0,0,0-3.13,3.16V308H47.67v15.13H17.08v22.68Z"/><path class="cls-1" d="M139.18,295.5H120.93V280.28h53.32V295.5H156v50.16H139.18Z"/><path class="cls-1" d="M113.65,280.3v35.79c.08,19.33-9.26,30.17-26.77,30.17S60.46,335.89,60.46,315.9V280.3H77.28v35.6c0,10.27,2.77,14.57,9.6,14.57s9.94-4.48,9.94-14.38V280.3Z"/><path class="cls-1" d="M355.51,345.59H318.68a16.45,16.45,0,0,1-16.36-16.52V280.21h53.19v15.5H319v9.34h31v15H319v6.75a3.13,3.13,0,0,0,3.11,3.15h33.42Z"/><path class="cls-1" d="M405,298.23c-4.1-3.28-10.64-4.72-15.85-4.72-4.1,0-9.54,1.7-9.54,5.07,0,4.38,5.51,5,11.4,5.65C402.92,305.6,416,310.7,416,325.37c0,14.48-13.7,21.64-27.1,21.64-8.7,0-16.31-1-25.85-10.22l9-11.38a23.59,23.59,0,0,0,17,6.2c5.54,0,10.28-2.22,10.28-6.52,0-3.19-4.85-5.19-11.42-5.83-13.06-1.27-25.09-4.82-25.09-20.68,0-13.48,13.82-19.65,26.45-19.65,9,0,17.81,2.54,24.21,7.92Z"/><path class="cls-1" d="M234.59,280.28v35.78c.08,19.33-9.26,30.17-26.77,30.17s-26.42-10.37-26.42-30.36V280.28h16.82v35.59c0,10.27,2.77,14.57,9.6,14.57s9.94-4.48,9.94-14.38V280.28Z"/><path class="cls-1" d="M295.06,302.79c0-11.77-7.94-22.51-23.23-22.51H241.88v65.38h16.9v-21.2h6.84l6.15,10.38,6.38,10.82h16.91l-13.47-22.85C291.78,319.3,295.06,310.82,295.06,302.79ZM258.78,295h13.05c4.44,0,6.57,4,6.57,8.12,0,3.92-2,7.57-6.4,7.57H258.78Z"/><path class="cls-1" d="M119.06,128.61a72.67,72.67,0,1,0-92.78,0,72.67,72.67,0,1,0,92.78,0Z"/><path class="cls-1" d="M275.16,128.61A72.67,72.67,0,1,0,156.16,70h76.93v40.28c0,8-6.88,13.24-12.14,18.35,5.24,4.91,12.14,10.37,12.14,18.91v39.26H156.15a72.66,72.66,0,1,0,119-58.17Z"/><path class="cls-1" d="M339,187.06H416V147.8c0-8.54-6.9-14-12.14-18.91,5.26-5.11,12.14-10.37,12.14-18.34V70.34H339.05Z"/></svg>