<svg class="flag-icon" version="1.1" id="Layer_1" xmlns="http://www.w3.org/2000/svg" xmlns:xlink="http://www.w3.org/1999/xlink" x="0px" y="0px" viewBox="0 0 100 55" style="enable-background:new 0 0 100 55;" xml:space="preserve">
          <g id="XMLID_1717_">
          	<path id="XMLID_1728_" d="M10.3,1.4C10.1,0.6,9.4,0,8.5,0C7.3,0,6.3,1.2,6.7,2.4l1.5,5.1L0,5.2l2.2,7.5L9,10.3l9.7,33.4l-8.3-2.4
          		l2.2,7.5l6.9-2.4l2.1,7.2c0.2,0.8,1,1.4,1.8,1.4c1.3,0,2.2-1.2,1.8-2.4L10.3,1.4z"></path>
          	<path id="XMLID_1720_" d="M77.5,19c-7.1-2.5-13.5-6.5-20.6-8.2c-15.2-3.4-25.6-0.1-43.9-9.4c0,0,9.3,32,13.9,47.9
          		C47.8,49.9,54.4,38.1,62.7,36c6.2-1.6,14.4-1.3,20.2-2.5c9.3-1.9,13-7.1,17.1-14C91.4,21.6,85.5,21.7,77.5,19z M51.9,17.5
          		c-0.4,0.3-0.9,0.8-1.3,1.2c0,0,0.8,1.4,0.9,1.6c0.5,1,0.8,2,1,3.1c0.1,0.7,0,1.4-0.2,2.2c-0.4,1.8-1.4,3.5-3,4.6
          		c-3,2.2-5.6,1.4-7.3,0.3c0,0-0.3-0.2-0.3-0.2c-0.5,0.5-1.4,1.8-1.8,2.5c-2.2,3.1-6.2,5-9.7,3.9c-2-0.6-4-2.3-1.6-6.2
          		c1-1.2,2.1-1.5,1.6-0.6c-0.6,1.1-1.6,3-0.9,4.1c0.5,0.8,1.8,1,2.7,0.8c1.7-0.2,3.2-1.4,4.3-2.6c1.4-1.4,2.8-2.9,2.7-5
          		c0-1.4-0.9-3.2,0.5-4.4c0.3-0.3,0.6-0.3,0.6-0.3c0.1,0.1-0.2,0.2-0.3,0.6c-0.3,0.7,0.2,1.5,0.6,2.4c0,0,0,0.1,0.1,0.1
          		c0,0,0-0.1,0.1-0.1c2.6-3.7,5.1-5.8,6.7-6.7c-0.1,0-1.7-0.6-3.5-0.8c-1.3-0.2-2.4,0-3.4,0.4c-3.1,1.1-5.5,3.9-5.4,7.1
          		c0,0.9,0.1,1.7,0.5,2.5c0.1,0.3,0.8,1.2,0.6,1.4c-0.3,0.3-0.9-0.2-1.2-0.6c-1.2-1.4-1.3-3.9-1-5.7c0.4-2,1.5-3.5,3-4.8
          		c3.6-3.2,9-3,12.5-0.6c-0.1,0,1.6-0.8,1.7-0.8c0.8-0.3,1.7-0.6,1.7-0.4C52.9,16.7,52.2,17.2,51.9,17.5z"></path>
          	<path id="XMLID_1718_" d="M48.7,20.4C48.7,20.4,48.7,20.4,48.7,20.4c-1.7,1.9-5.4,7.2-5.8,7.8c-0.1,0.1-0.1,0.2-0.2,0.3
          		c0.7,0.7,2.3,0.8,3,0.6c1.3-0.4,2.7-1.3,3.4-2.4c0.8-1.4,0.7-3.2,0.3-4.5C49.3,21.6,49,21,48.7,20.4z"></path>
          </g>
          </svg>